<svg xmlns="http://www.w3.org/2000/svg" viewBox="0 0 128 128" width="300" height="300" version="1.1" xmlns:xlink="http://www.w3.org/1999/xlink" xmlns:svgjs="http://svgjs.dev/svgjs"><g width="100%" height="100%" transform="matrix(1,0,0,1,0,0)"><defs><style>.cls-1{fill:rgb(0,0,0);}</style></defs><g id="OUTLINE"><path class="" d="M75.29,52.63C68.7,59,58.79,57.11,55.12,57.45a5,5,0,0,0-4.95,4.95v2.52a5.54,5.54,0,0,0,5.53,5.53h.74l1.43,5.49a1.5,1.5,0,0,0,2.91-.76l-1.24-4.73c1,.13,9.91-.86,15.73,4.9a1.5,1.5,0,0,0,2.56-1.06V53.71A1.5,1.5,0,0,0,75.29,52.63Zm-16,14.82H55.7a2.53,2.53,0,0,1-2.53-2.53V62.4a2,2,0,0,1,1.95-1.95h4.14Zm15.57,3.67c-3.31-2.25-7.46-3.45-12.57-3.64V60.43c5.09-.2,9.24-1.38,12.57-3.6Z" fill="#f80d8e" fill-opacity="1" data-original-color="#000000ff" stroke="none" stroke-opacity="1"/><path class="" d="M103.4,84.51A18.79,18.79,0,0,0,91.19,89l-3.73-3.73a31.67,31.67,0,0,0,0-42.68l3.68-3.68A18.93,18.93,0,1,0,89,36.8l-3.69,3.69a31.67,31.67,0,0,0-42.68,0L39,36.83A19,19,0,1,0,36.88,39l3.66,3.66a31.67,31.67,0,0,0,0,42.68L36.83,89A19,19,0,1,0,39,91.12l3.71-3.71a31.67,31.67,0,0,0,42.68,0l3.73,3.74a18.82,18.82,0,1,0,14.33-6.64ZM87.56,24.65A15.84,15.84,0,1,1,103.4,40.49,15.86,15.86,0,0,1,87.56,24.65ZM24.65,40.49A15.85,15.85,0,1,1,40.49,24.65,15.87,15.87,0,0,1,24.65,40.49Zm15.84,62.86A15.85,15.85,0,1,1,24.65,87.51,15.87,15.87,0,0,1,40.49,103.35ZM64,92.68A28.73,28.73,0,1,1,92.73,64,28.76,28.76,0,0,1,64,92.68Zm39.4,26.52a15.85,15.85,0,1,1,15.84-15.85A15.86,15.86,0,0,1,103.4,119.2Z" fill="#f80d8e" fill-opacity="1" data-original-color="#000000ff" stroke="none" stroke-opacity="1"/><path class="" d="M29.58,21.86H24.31l1-2.89a4,4,0,0,0-7.57-2.5l-1.55,4.69a12.77,12.77,0,0,0-.65,4v6.76a3.63,3.63,0,0,0,3.62,3.62H29.58a4.22,4.22,0,0,0,4.21-4.21V26.07A4.22,4.22,0,0,0,29.58,21.86Zm1.21,9.49a1.21,1.21,0,0,1-1.21,1.21H19.12a.62.62,0,0,1-.62-.62V25.18A9.79,9.79,0,0,1,19,22.1l1.55-4.69a1,1,0,0,1,1.73-.26,1,1,0,0,1,.14.88l-1.08,3.25a2.73,2.73,0,0,0,2.59,3.58h5.65a1.21,1.21,0,0,1,1.21,1.21Z" fill="#f80d8e" fill-opacity="1" data-original-color="#000000ff" stroke="none" stroke-opacity="1"/><path class="" d="M30,93.56H19.32A4.47,4.47,0,0,0,14.85,98v10.66a4.47,4.47,0,0,0,4.47,4.47H30a4.47,4.47,0,0,0,4.46-4.47V98A4.46,4.46,0,0,0,30,93.56Zm1.46,15.12A1.46,1.46,0,0,1,30,110.15H19.32a1.47,1.47,0,0,1-1.47-1.47V108l3.62-3.07,3,3.17a1.51,1.51,0,0,0,2,.13l2.64-2.13L31.44,108Zm0-4.6L30.15,103a1.49,1.49,0,0,0-1.9,0l-2.53,2-3.06-3.19a1.51,1.51,0,0,0-2.06-.11l-2.75,2.34V98a1.46,1.46,0,0,1,1.47-1.46H30A1.46,1.46,0,0,1,31.44,98Z" fill="#f80d8e" fill-opacity="1" data-original-color="#000000ff" stroke="none" stroke-opacity="1"/><path class="" d="M112.86,97.42a2.25,2.25,0,0,0-2.27,0l-2.29,1.26v0a3,3,0,0,0-3-3H95.83a3,3,0,0,0-3,3v9.45a3,3,0,0,0,3,3h9.45a3,3,0,0,0,3-3v0l2.28,1.26a2.29,2.29,0,0,0,3.41-2V99.39A2.25,2.25,0,0,0,112.86,97.42Zm-7.58,10.68-9.47,0,0-9.47h9.45a0,0,0,0,1,0,0Zm5.71-2-2.69-1.49v-2.54l2.69-1.49Z" fill="#f80d8e" fill-opacity="1" data-original-color="#000000ff" stroke="none" stroke-opacity="1"/><path class="" d="M96.94,30.75H99l4.22,2.81a2.88,2.88,0,0,0,4.49-2.43v-.38h2.13A4.17,4.17,0,0,0,114,26.58V19.41a4.16,4.16,0,0,0-4.16-4.16H96.94a4.16,4.16,0,0,0-4.16,4.16v7.17A4.17,4.17,0,0,0,96.94,30.75ZM95.78,19.41a1.16,1.16,0,0,1,1.16-1.16h12.92A1.16,1.16,0,0,1,111,19.41v7.17a1.16,1.16,0,0,1-1.16,1.17h-3.64a1.52,1.52,0,0,0-1.07.44,1.47,1.47,0,0,0-.43,1.07V31L100.31,28a1.47,1.47,0,0,0-.83-.25H96.94a1.16,1.16,0,0,1-1.16-1.17Z" fill="#f80d8e" fill-opacity="1" data-original-color="#000000ff" stroke="none" stroke-opacity="1"/></g></g></svg>