<svg height="300" viewBox="0 0 128 128" width="300" xmlns="http://www.w3.org/2000/svg" version="1.1" xmlns:xlink="http://www.w3.org/1999/xlink" xmlns:svgjs="http://svgjs.dev/svgjs"><g width="100%" height="100%" transform="matrix(1,0,0,1,0,0)"><g id="_8" data-name="8"><path d="m27.74365 86.11719a12.10281 12.10281 0 1 1 1.478-.08985 12.251 12.251 0 0 1 -1.478.08985zm.04053-20.17627a8.21274 8.21274 0 0 0 -.98828.05957 8.06343 8.06343 0 1 0 .98828-.05957zm20.75146 57.11963h-41.53564a2.0002 2.0002 0 0 1 -1.91162-2.58838l5.38379-17.48779a18.09677 18.09677 0 0 1 34.59131 0l5.38379 17.48779a2.00022 2.00022 0 0 1 -1.91163 2.58838zm-38.82714-4h36.11865l-4.58692-14.89942a14.09643 14.09643 0 0 0 -26.94482 0zm90.6206-89.94922a12.0621 12.0621 0 1 1 1.46973-.08936 12.2138 12.2138 0 0 1 -1.46973.08936zm.03028-20.05078a8.064 8.064 0 0 0 -.97071.05859 8.02071 8.02071 0 1 0 .97071-.05859zm20.63281 56.76513h-41.27832a2.00022 2.00022 0 0 1 -1.91114-2.58838l5.35059-17.37939a17.99615 17.99615 0 0 1 34.39941 0l5.35059 17.37939a2.0002 2.0002 0 0 1 -1.91113 2.58838zm-38.57031-4h35.8623l-4.55371-14.791a13.99713 13.99713 0 0 0 -26.75488 0zm-63.60059-15.82568v-32h54.35742a2 2 0 0 0 0-4h-56.35742a2.0001 2.0001 0 0 0 -2 2v34a2 2 0 1 0 4 0zm94.35742 70v-34a2 2 0 0 0 -4 0v32h-44.35742a2 2 0 0 0 0 4h46.35742a2.0001 2.0001 0 0 0 2-2zm-73.03564-66.1875a1.99911 1.99911 0 0 1 -1.78662-1.10156l-3.4502-6.86133a1.99934 1.99934 0 0 1 .88818-2.68506l16.19239-8.14355-3.062-6.08936a1.99974 1.99974 0 0 1 2.51172-2.76221l16.69825 6.49512a2 2 0 0 1 1.1748 2.49121l-5.32717 16.11865a1.99975 1.99975 0 0 1 -3.68554.271l-3.0625-6.08887-16.19288 8.14258a1.99814 1.99814 0 0 1 -.89843.21338zm-.76514-7.97314 1.65332 3.28764 16.19287-8.14257a1.99891 1.99891 0 0 1 2.68506.88818l1.791 3.56055 3.21533-9.729-10.0791-3.92041 1.62255 3.227a1.99918 1.99918 0 0 1 -.88818 2.68506zm37.91113 64.12744a1.99028 1.99028 0 0 1 -.72461-.13623l-16.69922-6.49512a1.99966 1.99966 0 0 1 -1.17382-2.49121l5.32568-16.11865a2.00011 2.00011 0 0 1 3.686-.271l3.0625 6.08887 16.19241-8.14258a1.99956 1.99956 0 0 1 2.68554.88769l3.45118 6.86133a2.00144 2.00144 0 0 1 -.88868 2.68555l-16.19237 8.14355 3.0625 6.08936a2.00066 2.00066 0 0 1 -1.78711 2.89844zm-14.20406-9.6709 10.0791 3.92041-1.623-3.227a2.00105 2.00105 0 0 1 .88867-2.68506l16.19238-8.14356-1.65332-3.28808-16.19344 8.14302a1.99893 1.99893 0 0 1 -2.68555-.88819l-1.79-3.56006z" fill="#f80d8e" fill-opacity="1" data-original-color="#000000ff" stroke="none" stroke-opacity="1"/></g></g></svg>