<svg xmlns="http://www.w3.org/2000/svg" xmlns:xlink="http://www.w3.org/1999/xlink" version="1.1" id="Capa_1" x="0px" y="0px" viewBox="0 0 512 512" style="enable-background:new 0 0 512 512;" xml:space="preserve" width="300" height="300" xmlns:svgjs="http://svgjs.dev/svgjs"><g width="100%" height="100%" transform="matrix(1,0,0,1,0,0)"><g>
	<path style="stroke-linecap: round; stroke-linejoin: round; stroke-miterlimit: 10;" d="&#10;&#9;&#9;M204.9,74.38c63.51-17.8,134.53-1.73,184.49,48.23c73.66,73.67,73.66,193.11,0,266.78c-73.67,73.66-193.11,73.66-266.78,0&#10;&#9;&#9;c-73.66-73.67-73.66-193.11,0-266.78c14.93-14.93,31.74-26.83,49.67-35.71" fill="none" fill-opacity="1" stroke="#f80d8e" stroke-opacity="1" data-original-stroke-color="#000000ff" stroke-width="15" data-original-stroke-width="15"/>
	<path style="stroke-linecap: round; stroke-linejoin: round; stroke-miterlimit: 10;" d="&#10;&#9;&#9;M322.27,345.62c4.38-3.24,8.57-6.84,12.54-10.81c43.52-43.53,43.52-114.09,0-157.62c-43.53-43.52-114.09-43.52-157.62,0&#10;&#9;&#9;c-43.52,43.53-43.52,114.09,0,157.62c31.04,31.04,75.83,39.94,114.76,26.7" fill="none" fill-opacity="1" stroke="#f80d8e" stroke-opacity="1" data-original-stroke-color="#000000ff" stroke-width="15" data-original-stroke-width="15"/>
	<g>
		<g>
			<path style="stroke-linecap: round; stroke-linejoin: round; stroke-miterlimit: 10;" d="&#10;&#9;&#9;&#9;&#9;M497.15,97.38c4.9-9.02,7.35-19.02,7.35-29.02c0-15.58-5.94-31.15-17.83-43.03c-23.76-23.77-62.3-23.77-86.06,0l-11.22,11.21&#10;&#9;&#9;&#9;&#9;c-23.77,23.77-23.77,62.31,0,86.07c23.37,23.38,61.05,23.76,84.9,1.15" fill="none" fill-opacity="1" stroke="#f80d8e" stroke-opacity="1" data-original-stroke-color="#000000ff" stroke-width="15" data-original-stroke-width="15"/>
		</g>
		<g>
			<path style="stroke-linecap: round; stroke-linejoin: round; stroke-miterlimit: 10;" d="&#10;&#9;&#9;&#9;&#9;M122.613,389.387L122.613,389.387c-23.767-23.767-62.302-23.767-86.069,0l-11.219,11.219c-23.767,23.767-23.767,62.302,0,86.069&#10;&#9;&#9;&#9;&#9;l0,0c23.767,23.767,62.302,23.767,86.069,0l11.219-11.219C146.38,451.689,146.38,413.154,122.613,389.387z" fill="none" fill-opacity="1" stroke="#f80d8e" stroke-opacity="1" data-original-stroke-color="#000000ff" stroke-width="15" data-original-stroke-width="15"/>
		</g>
	</g>
	<g>
		<g>
			<path style="stroke-linecap: round; stroke-linejoin: round; stroke-miterlimit: 10;" d="&#10;&#9;&#9;&#9;&#9;M122.613,122.613L122.613,122.613c-23.767,23.767-62.302,23.767-86.069,0l-11.219-11.219c-23.767-23.767-23.767-62.302,0-86.069&#10;&#9;&#9;&#9;&#9;l0,0c23.767-23.767,62.302-23.767,86.069,0l11.219,11.219C146.38,60.311,146.38,98.846,122.613,122.613z" fill="none" fill-opacity="1" stroke="#f80d8e" stroke-opacity="1" data-original-stroke-color="#000000ff" stroke-width="15" data-original-stroke-width="15"/>
		</g>
		<g>
			<path style="stroke-linecap: round; stroke-linejoin: round; stroke-miterlimit: 10;" d="&#10;&#9;&#9;&#9;&#9;M389.387,389.387L389.387,389.387c-23.767,23.767-23.767,62.302,0,86.069l11.219,11.219c23.767,23.767,62.302,23.767,86.069,0&#10;&#9;&#9;&#9;&#9;l0,0c23.767-23.767,23.767-62.302,0-86.069l-11.219-11.219C451.689,365.62,413.154,365.62,389.387,389.387z" fill="none" fill-opacity="1" stroke="#f80d8e" stroke-opacity="1" data-original-stroke-color="#000000ff" stroke-width="15" data-original-stroke-width="15"/>
		</g>
	</g>
	<path style="stroke-linecap: round; stroke-linejoin: round; stroke-miterlimit: 10;" d="&#10;&#9;&#9;M256,444.639c-21.316,0-38.596-17.28-38.596-38.596c0-21.316,17.28-38.596,38.596-38.596" fill="none" fill-opacity="1" stroke="#f80d8e" stroke-opacity="1" data-original-stroke-color="#000000ff" stroke-width="15" data-original-stroke-width="15"/>
	<path style="stroke-linecap: round; stroke-linejoin: round; stroke-miterlimit: 10;" d="&#10;&#9;&#9;M256,67.36c21.316,0,38.596,17.28,38.596,38.596s-17.28,38.596-38.596,38.596" fill="none" fill-opacity="1" stroke="#f80d8e" stroke-opacity="1" data-original-stroke-color="#000000ff" stroke-width="15" data-original-stroke-width="15"/>
	<path style="stroke-linecap: round; stroke-linejoin: round; stroke-miterlimit: 10;" d="&#10;&#9;&#9;M67.361,256c0-21.316,17.28-38.596,38.596-38.596s38.596,17.28,38.596,38.596" fill="none" fill-opacity="1" stroke="#f80d8e" stroke-opacity="1" data-original-stroke-color="#000000ff" stroke-width="15" data-original-stroke-width="15"/>
	<path style="stroke-linecap: round; stroke-linejoin: round; stroke-miterlimit: 10;" d="&#10;&#9;&#9;M444.64,256c0,21.316-17.28,38.596-38.596,38.596s-38.596-17.28-38.596-38.596" fill="none" fill-opacity="1" stroke="#f80d8e" stroke-opacity="1" data-original-stroke-color="#000000ff" stroke-width="15" data-original-stroke-width="15"/>
</g></g></svg>