<svg id="Layer_1" viewBox="0 0 512 512" xmlns="http://www.w3.org/2000/svg" data-name="Layer 1" width="300" height="300" version="1.1" xmlns:xlink="http://www.w3.org/1999/xlink" xmlns:svgjs="http://svgjs.dev/svgjs"><g width="100%" height="100%" transform="matrix(1,0,0,1,0,0)"><path d="m88.869 90.481a23.529 23.529 0 0 1 16.031 4.484 23.541 23.541 0 0 1 15.622-4.086 26.635 26.635 0 0 1 11.688 3.9 25 25 0 0 1 8.7 8.978c3.35 5.985 4.22 13.568.78 21.954-4.112 10.024-17.363 18.49-28.182 25.4-1.926 1.231-3.76 2.4-6.111 3.988a5.327 5.327 0 0 1 -6.039.056c-1.437-.97-3.02-2.008-4.677-3.094-10.9-7.149-24.834-16.284-29.122-26.738-3.522-8.584-2.52-16.326 1.034-22.373a25.1 25.1 0 0 1 8.7-8.734 26.612 26.612 0 0 1 11.576-3.733zm.831 10.619a15.9 15.9 0 0 0 -6.912 2.234 14.463 14.463 0 0 0 -5.04 4.986c-1.978 3.366-2.475 7.825-.368 12.961 3.026 7.375 15.423 15.5 25.125 21.866l1.849 1.214c1.058-.682 2.236-1.434 3.443-2.2 9.536-6.092 21.215-13.553 24.059-20.487 2.056-5.01 1.628-9.375-.238-12.71a14.337 14.337 0 0 0 -4.994-5.146 15.889 15.889 0 0 0 -6.983-2.315 12.961 12.961 0 0 0 -10.916 4.16 5.308 5.308 0 0 1 -7.5.375c-3.736-3.375-5.885-5.377-11.529-4.933zm60.3-26.155a64.181 64.181 0 1 0 18.8 45.381 63.978 63.978 0 0 0 -18.8-45.381zm319.643-1.966h-133.691a1.932 1.932 0 0 0 -1.913 1.913v85.788a1.935 1.935 0 0 0 1.913 1.914h12.248a5.33 5.33 0 0 1 5.33 5.33v17.741l32-21.93a5.306 5.306 0 0 1 3.3-1.141h80.817a1.936 1.936 0 0 0 1.914-1.914v-85.788a1.933 1.933 0 0 0 -1.914-1.913zm-82.568 36.384a5.331 5.331 0 0 1 0-10.661h66.263a5.331 5.331 0 1 1 0 10.661zm-32.757 0a5.331 5.331 0 0 1 0-10.661h5.882a5.331 5.331 0 0 1 0 10.661zm77.484 31.5a5.331 5.331 0 0 1 0-10.661h19.516a5.331 5.331 0 0 1 0 10.661zm-79.5 0a5.331 5.331 0 0 1 0-10.661h57.708a5.331 5.331 0 0 1 0 10.661zm111.189 207.454-23.681-66.376-30.871 48.427zm-113.934 45.845 29.247-45.88 15.47 5.09 8.755-13.733 51.683 17zm-35.713-67.253 23.682 66.375 30.874-48.426-54.553-17.949zm113.935-45.845-38 59.613-67.154-22.1 105.156-37.518zm-272.79 16.292a65.95 65.95 0 1 0 19.311 46.631 65.741 65.741 0 0 0 -19.314-46.631zm-17.963 49.256q-24.026 13.874-48.058 27.735a.987.987 0 0 1 -1.508-.886v-55.469a1 1 0 0 1 1.528-.885c4.184 2.416 47.963 27.735 48.038 27.735a1.028 1.028 0 0 1 0 1.77zm5.289 9.2q-24.023 13.872-48.015 27.738a11.666 11.666 0 0 1 -17.5-10.089v-55.469a11.74 11.74 0 0 1 11.665-11.692 11.584 11.584 0 0 1 5.812 1.6q24.03 13.874 48.059 27.735c3.728 2.622 5.833 5.287 5.833 10.088a11.547 11.547 0 0 1 -5.854 10.088zm131.916-114.812 41.569 11.771-29.461-96.891-27.979 32.925zm-54.448 24.93q10.76 17.708 21.529 35.409a7.073 7.073 0 0 0 4.386 3.2 7 7 0 0 0 8.523-5.129 7.549 7.549 0 0 0 -.819-5.564l-18.747-32.446-14.872 4.523zm43.531-24.335-69.034 20.987-14.414-47.4 69.034-20.993 14.414 47.4zm-90.214-12.183a13.129 13.129 0 0 0 7.639 25.118zm10.728 35.277a23.746 23.746 0 0 1 -13.817-45.436l-1.844-6.065a5.309 5.309 0 0 1 3.54-6.621l77.679-23.621 35.152-41.353a5.309 5.309 0 0 1 9.133 1.888l35.028 115.19a5.319 5.319 0 0 1 -6.417 6.992l-52.618-14.9-24.564 7.462 17.5 30.286a18.166 18.166 0 0 1 1.943 13.394 17.715 17.715 0 0 1 -32.314 4.968q-11.492-18.864-22.933-37.761l-17.015 5.174a5.309 5.309 0 0 1 -6.621-3.539l-1.842-6.058zm-52.328 168.649v31.524a13.283 13.283 0 0 0 13.232 13.231h219.427a13.283 13.283 0 0 0 13.231-13.231v-31.524zm245.89-371.02v-15.18a13.283 13.283 0 0 0 -13.231-13.231h-219.427a13.283 13.283 0 0 0 -13.232 13.231v3.324a74.877 74.877 0 0 1 0 139.729v80.749a76.641 76.641 0 0 1 0 146.1v5.642h245.89v-27.137l-39.664 14.155a5.328 5.328 0 0 1 -6.809-3.227l-30.543-85.605a5.327 5.327 0 0 1 3.227-6.808l73.789-26.327v-105.523l-26.19 17.949a5.318 5.318 0 0 1 -8.317-4.393l-.012-22.512h-6.92a12.6 12.6 0 0 1 -12.574-12.574v-85.788a12.6 12.6 0 0 1 12.574-12.574zm-256.55-15.066a74.839 74.839 0 1 0 0 146.149v74.992a76.608 76.608 0 1 0 0 151.189v45.28a23.948 23.948 0 0 0 23.892 23.892h219.427a23.949 23.949 0 0 0 23.892-23.892v-73.121l85.684-30.571a5.327 5.327 0 0 0 3.227-6.808l-30.543-85.606a5.329 5.329 0 0 0 -6.809-3.227l-51.559 18.4v-109.029l2.407-1.65h79.186a12.6 12.6 0 0 0 12.574-12.574v-85.784a12.6 12.6 0 0 0 -12.574-12.574h-81.593v-15.18a23.949 23.949 0 0 0 -23.892-23.892h-219.427a23.948 23.948 0 0 0 -23.892 23.892zm112.26 411.504a5.33 5.33 0 0 1 0-10.66h42.692a5.33 5.33 0 0 1 0 10.66zm21.23-401.184a5.333 5.333 0 1 1 5.562-5.331 5.331 5.331 0 0 1 -5.562 5.331z" fill-rule="evenodd" fill="#f80d8e" fill-opacity="1" data-original-color="#000000ff" stroke="none" stroke-opacity="1"/></g></svg>