<svg id="Layer_1" height="300" viewBox="0 0 50 50" width="300" xmlns="http://www.w3.org/2000/svg" version="1.1" xmlns:xlink="http://www.w3.org/1999/xlink" xmlns:svgjs="http://svgjs.dev/svgjs"><g width="100%" height="100%" transform="matrix(1,0,0,1,0,0)"><g><g style="fill:none;stroke:#000;stroke-linecap:round;stroke-linejoin:round;stroke-miterlimit:10;stroke-width:1.5"><path d="m34.4 21.8c2.3-2.3 6.1-2.3 8.4 0" fill="none" fill-opacity="1" stroke="#f80d8e" stroke-opacity="1" data-original-stroke-color="#000000ff" stroke-width="1" data-original-stroke-width="2"/><path d="m36.1 23.6c1.4-1.4 3.6-1.4 4.9 0" fill="none" fill-opacity="1" stroke="#f80d8e" stroke-opacity="1" data-original-stroke-color="#000000ff" stroke-width="1" data-original-stroke-width="2"/><ellipse cx="38.6" cy="26.1" rx="1.1" ry="1.1" fill="none" fill-opacity="1" stroke="#f80d8e" stroke-opacity="1" data-original-stroke-color="#000000ff" stroke-width="1" data-original-stroke-width="2"/></g><g><g><g><ellipse cx="43" cy="6.9" rx="5.1" ry="5.1" style="stroke-linecap: round; stroke-linejoin: round; stroke-miterlimit: 10;" fill="none" fill-opacity="1" stroke="#f80d8e" stroke-opacity="1" data-original-stroke-color="#000000ff" stroke-width="1" data-original-stroke-width="2"/></g></g></g><g style="fill:none;stroke:#000;stroke-linecap:round;stroke-linejoin:round;stroke-miterlimit:10;stroke-width:1.5"><ellipse cx="25" cy="12.4" rx="10.6" ry="10.6" fill="none" fill-opacity="1" stroke="#f80d8e" stroke-opacity="1" data-original-stroke-color="#000000ff" stroke-width="1" data-original-stroke-width="2"/><ellipse cx="25" cy="12.4" rx="5.5" ry="10.6" fill="none" fill-opacity="1" stroke="#f80d8e" stroke-opacity="1" data-original-stroke-color="#000000ff" stroke-width="1" data-original-stroke-width="2"/><g><path d="m17.1 19.5c1.9-1.1 4.7-1.9 7.9-1.9 3.1 0 5.9.7 7.9 1.9" fill="none" fill-opacity="1" stroke="#f80d8e" stroke-opacity="1" data-original-stroke-color="#000000ff" stroke-width="1" data-original-stroke-width="2"/><path d="m32.9 5.3c-1.9 1.1-4.7 1.9-7.9 1.9-3.1 0-5.9-.7-7.9-1.9" fill="none" fill-opacity="1" stroke="#f80d8e" stroke-opacity="1" data-original-stroke-color="#000000ff" stroke-width="1" data-original-stroke-width="2"/></g><path d="m25 1.8v21.2" fill="none" fill-opacity="1" stroke="#f80d8e" stroke-opacity="1" data-original-stroke-color="#000000ff" stroke-width="1" data-original-stroke-width="2"/><path d="m35.6 12.4h-21.2" fill="none" fill-opacity="1" stroke="#f80d8e" stroke-opacity="1" data-original-stroke-color="#000000ff" stroke-width="1" data-original-stroke-width="2"/><g><path d="m48 44.4-.3.9c-.5 1.7-2.1 2.9-3.9 2.9h-37.7c-1.8 0-3.4-1.2-3.9-2.9l-.2-.9c-.1-.4.2-.9.7-.9h44.8c.3 0 .7.4.5.9z" fill="none" fill-opacity="1" stroke="#f80d8e" stroke-opacity="1" data-original-stroke-color="#000000ff" stroke-width="1" data-original-stroke-width="2"/><path d="m23.8 45.9h2.4" fill="none" fill-opacity="1" stroke="#f80d8e" stroke-opacity="1" data-original-stroke-color="#000000ff" stroke-width="1" data-original-stroke-width="2"/><path d="m34.4 17.3h8.6c1.1 0 2 .9 2 2v24.2" fill="none" fill-opacity="1" stroke="#f80d8e" stroke-opacity="1" data-original-stroke-color="#000000ff" stroke-width="1" data-original-stroke-width="2"/><path d="m5 43.5v-23.5c0-1.5 1.3-2.7 3-2.7h7.6" fill="none" fill-opacity="1" stroke="#f80d8e" stroke-opacity="1" data-original-stroke-color="#000000ff" stroke-width="1" data-original-stroke-width="2"/></g></g><g><path d="m16 33.5h-1.2c-.4 0-.8-.4-.8-.8v-1.1c0-.5.4-.8.8-.8h1.2" style="stroke-linecap: round; stroke-linejoin: round; stroke-miterlimit: 10;" fill="none" fill-opacity="1" stroke="#f80d8e" stroke-opacity="1" data-original-stroke-color="#000000ff" stroke-width="1" data-original-stroke-width="2"/><g><path d="m17.8 34.4v6h2.4l.9-6" style="stroke-linecap: round; stroke-linejoin: round; stroke-miterlimit: 10;" fill="none" fill-opacity="1" stroke="#f80d8e" stroke-opacity="1" data-original-stroke-color="#000000ff" stroke-width="1" data-original-stroke-width="2"/></g><g style="fill:none;stroke:#000;stroke-linecap:round;stroke-linejoin:round;stroke-miterlimit:10;stroke-width:1.5"><path d="m22 34.4h-5.1c-.5 0-.9-.4-.9-.9v-2.8c0-.5.4-.9.9-.9h5.1z" fill="none" fill-opacity="1" stroke="#f80d8e" stroke-opacity="1" data-original-stroke-color="#000000ff" stroke-width="1" data-original-stroke-width="2"/><path d="m32.9 30.6h1.6c.8 0 1.5.7 1.5 1.5s-.7 1.5-1.5 1.5h-1.6" fill="none" fill-opacity="1" stroke="#f80d8e" stroke-opacity="1" data-original-stroke-color="#000000ff" stroke-width="1" data-original-stroke-width="2"/><path d="m22 29.9 10.9-5.1v14.7l-10.9-5.1" fill="none" fill-opacity="1" stroke="#f80d8e" stroke-opacity="1" data-original-stroke-color="#000000ff" stroke-width="1" data-original-stroke-width="2"/></g></g><g><g><g style="fill:none;stroke:#000;stroke-linecap:round;stroke-linejoin:round;stroke-miterlimit:10;stroke-width:1.5"><ellipse cx="7" cy="6.9" rx="5.1" ry="5.1" fill="none" fill-opacity="1" stroke="#f80d8e" stroke-opacity="1" data-original-stroke-color="#000000ff" stroke-width="1" data-original-stroke-width="2"/><path d="m5.5 4.2v5.4l3.8-2.7z" fill="none" fill-opacity="1" stroke="#f80d8e" stroke-opacity="1" data-original-stroke-color="#000000ff" stroke-width="1" data-original-stroke-width="2"/></g></g></g><path d="m43 5.7c-2.1-1.9-4.1 1.9 0 3.7 4-1.8 2.1-5.6 0-3.7z" style="stroke-linecap: round; stroke-linejoin: round; stroke-miterlimit: 10;" fill="none" fill-opacity="1" stroke="#f80d8e" stroke-opacity="1" data-original-stroke-color="#000000ff" stroke-width="1" data-original-stroke-width="2"/></g></g></svg>