<svg id="Layer_1" enable-background="new 0 0 66 66" viewBox="0 0 66 66" xmlns="http://www.w3.org/2000/svg" width="300" height="300" version="1.1" xmlns:xlink="http://www.w3.org/1999/xlink" xmlns:svgjs="http://svgjs.dev/svgjs"><g width="100%" height="100%" transform="matrix(1,0,0,1,0,0)"><g><path d="m27.36 31.42h-16.34c-1.89 0-3.44 1.54-3.44 3.44v15.32c0 1.89 1.54 3.44 3.44 3.44h16.34c1.89 0 3.44-1.54 3.44-3.44v-15.32c-.01-1.89-1.55-3.44-3.44-3.44zm2.06 18.76c0 1.14-.92 2.06-2.06 2.06h-16.34c-1.14 0-2.06-.92-2.06-2.06v-15.32c0-1.14.92-2.06 2.06-2.06h16.34c1.14 0 2.06.92 2.06 2.06z" fill="#f80d8e" fill-opacity="1" data-original-color="#000000ff" stroke="none" stroke-opacity="1"/><path d="m59.11 25.03c-2.15 0-3.89 1.75-3.89 3.89v1.99l-9.69 4.73v-3.53c0-2.9-2.36-5.27-5.27-5.27h-1.44c3.43-1.89 5.77-5.55 5.77-9.74 0-6.12-4.99-11.1-11.11-11.1-5.09 0-9.38 3.44-10.69 8.11-1.59-3.36-5-5.69-8.95-5.69-5.46 0-9.9 4.44-9.9 9.9 0 3.63 1.97 6.8 4.9 8.53h-.57c-2.9 0-5.27 2.36-5.27 5.27v20.81c0 2.9 2.36 5.27 5.27 5.27h31.99c2.9 0 5.27-2.36 5.27-5.27v-3.53l9.69 4.73v1.99c0 2.15 1.75 3.89 3.89 3.89 2.15 0 3.89-1.75 3.89-3.89v-27.2c0-2.14-1.75-3.89-3.89-3.89zm-25.63-17.66c5.37 0 9.74 4.37 9.74 9.74s-4.37 9.74-9.74 9.74-9.74-4.37-9.74-9.74 4.37-9.74 9.74-9.74zm-5.35 19.47h-9.29c2.05-1.21 3.63-3.13 4.39-5.43.98 2.32 2.72 4.23 4.9 5.43zm-22.82-8.52c0-4.7 3.83-8.53 8.53-8.53s8.53 3.83 8.53 8.53-3.83 8.53-8.53 8.53-8.53-3.83-8.53-8.53zm38.84 34.6c0 2.15-1.75 3.89-3.89 3.89h-31.99c-2.15 0-3.89-1.75-3.89-3.89v-20.81c0-2.15 1.75-3.89 3.89-3.89h31.99c2.15 0 3.89 1.75 3.89 3.89v4.63 11.55zm1.37-5.06v-10.69l9.69-4.73v20.15zm16.11 8.25c0 1.39-1.13 2.52-2.52 2.52s-2.52-1.13-2.52-2.52v-2.42-22.35-2.42c0-1.39 1.13-2.52 2.52-2.52s2.52 1.13 2.52 2.52z" fill="#f80d8e" fill-opacity="1" data-original-color="#000000ff" stroke="none" stroke-opacity="1"/><path d="m33.48 23.64c3.6 0 6.53-2.93 6.53-6.53s-2.93-6.53-6.53-6.53-6.53 2.93-6.53 6.53 2.92 6.53 6.53 6.53zm0-11.69c2.84 0 5.16 2.31 5.16 5.16s-2.31 5.16-5.16 5.16-5.16-2.31-5.16-5.16 2.31-5.16 5.16-5.16z" fill="#f80d8e" fill-opacity="1" data-original-color="#000000ff" stroke="none" stroke-opacity="1"/><path d="m13.84 12.99c-2.94 0-5.32 2.39-5.32 5.32s2.39 5.32 5.32 5.32 5.32-2.39 5.32-5.32-2.39-5.32-5.32-5.32zm0 9.27c-2.18 0-3.95-1.77-3.95-3.95s1.77-3.95 3.95-3.95 3.95 1.77 3.95 3.95-1.78 3.95-3.95 3.95z" fill="#f80d8e" fill-opacity="1" data-original-color="#000000ff" stroke="none" stroke-opacity="1"/><path d="m23.65 40.47-5.99-4.28c-.77-.55-1.77-.62-2.62-.19-.84.43-1.37 1.29-1.37 2.24v8.56c0 .95.52 1.81 1.37 2.24.36.19.76.28 1.15.28.51 0 1.03-.16 1.46-.47l5.99-4.28c.67-.48 1.06-1.23 1.06-2.05s-.38-1.57-1.05-2.05zm-.8 2.98-5.99 4.28c-.36.25-.8.28-1.19.09-.39-.2-.62-.58-.62-1.02v-8.56c0-.44.23-.82.62-1.02.17-.09.35-.13.53-.13.23 0 .46.07.66.22l5.99 4.28c.31.22.48.56.48.93s-.18.71-.48.93z" fill="#f80d8e" fill-opacity="1" data-original-color="#000000ff" stroke="none" stroke-opacity="1"/><path d="m37.47 32.12c-1.64 0-2.98 1.34-2.98 2.98s1.34 2.98 2.98 2.98 2.98-1.34 2.98-2.98-1.34-2.98-2.98-2.98zm0 4.58c-.88 0-1.6-.72-1.6-1.6s.72-1.6 1.6-1.6 1.6.72 1.6 1.6-.72 1.6-1.6 1.6z" fill="#f80d8e" fill-opacity="1" data-original-color="#000000ff" stroke="none" stroke-opacity="1"/><path d="m37.47 40.09c-1.64 0-2.98 1.34-2.98 2.98s1.34 2.98 2.98 2.98 2.98-1.34 2.98-2.98-1.34-2.98-2.98-2.98zm0 4.58c-.88 0-1.6-.72-1.6-1.6s.72-1.6 1.6-1.6 1.6.72 1.6 1.6-.72 1.6-1.6 1.6z" fill="#f80d8e" fill-opacity="1" data-original-color="#000000ff" stroke="none" stroke-opacity="1"/></g></g></svg>