<svg id="Layer_1" enable-background="new 0 0 68 68" viewBox="0 0 68 68" xmlns="http://www.w3.org/2000/svg" width="300" height="300" version="1.1" xmlns:xlink="http://www.w3.org/1999/xlink" xmlns:svgjs="http://svgjs.dev/svgjs"><g width="100%" height="100%" transform="matrix(1,0,0,1,0,0)"><g><g><path d="m65 47h-62c-.6 0-1-.4-1-1v-30c0-.6.4-1 1-1h62c.6 0 1 .4 1 1v30c0 .6-.4 1-1 1zm-61-2h60v-28h-60z" fill="#f80d8e" fill-opacity="1" data-original-color="#000000ff" stroke="none" stroke-opacity="1"/></g><g><path d="m18 66c-.6 0-1-.4-1-1v-19c0-.6.4-1 1-1s1 .4 1 1v19c0 .6-.4 1-1 1z" fill="#f80d8e" fill-opacity="1" data-original-color="#000000ff" stroke="none" stroke-opacity="1"/></g><g><path d="m50 66c-.6 0-1-.4-1-1v-19c0-.6.4-1 1-1s1 .4 1 1v19c0 .6-.4 1-1 1z" fill="#f80d8e" fill-opacity="1" data-original-color="#000000ff" stroke="none" stroke-opacity="1"/></g><g><path d="m22 66h-8c-.6 0-1-.4-1-1s.4-1 1-1h8c.6 0 1 .4 1 1s-.4 1-1 1z" fill="#f80d8e" fill-opacity="1" data-original-color="#000000ff" stroke="none" stroke-opacity="1"/></g><g><path d="m22 66h-8c-.6 0-1-.4-1-1s.4-1 1-1h8c.6 0 1 .4 1 1s-.4 1-1 1z" fill="#f80d8e" fill-opacity="1" data-original-color="#000000ff" stroke="none" stroke-opacity="1"/></g><g><path d="m54 66h-8c-.6 0-1-.4-1-1s.4-1 1-1h8c.6 0 1 .4 1 1s-.4 1-1 1z" fill="#f80d8e" fill-opacity="1" data-original-color="#000000ff" stroke="none" stroke-opacity="1"/></g><g><path d="m54 66h-8c-.6 0-1-.4-1-1s.4-1 1-1h8c.6 0 1 .4 1 1s-.4 1-1 1z" fill="#f80d8e" fill-opacity="1" data-original-color="#000000ff" stroke="none" stroke-opacity="1"/></g><g><path d="m50 17c-.6 0-1-.4-1-1v-9c0-1.7-1.3-3-3-3s-3 1.3-3 3c0 .6-.4 1-1 1s-1-.4-1-1c0-2.8 2.2-5 5-5s5 2.2 5 5v9c0 .6-.4 1-1 1z" fill="#f80d8e" fill-opacity="1" data-original-color="#000000ff" stroke="none" stroke-opacity="1"/></g><g><path d="m18 17c-.6 0-1-.4-1-1v-9c0-1.7-1.3-3-3-3s-3 1.3-3 3c0 .6-.4 1-1 1s-1-.4-1-1c0-2.8 2.2-5 5-5s5 2.2 5 5v9c0 .6-.4 1-1 1z" fill="#f80d8e" fill-opacity="1" data-original-color="#000000ff" stroke="none" stroke-opacity="1"/></g><g><path d="m13 12h-6c-.5 0-.9-.3-1-.8l-1-4c0-.3 0-.6.2-.8s.5-.4.8-.4h8c.3 0 .6.1.8.4s.2.5.2.8l-1 4c-.1.5-.5.8-1 .8zm-5.2-2h4.4l.5-2h-5.4z" fill="#f80d8e" fill-opacity="1" data-original-color="#000000ff" stroke="none" stroke-opacity="1"/></g><g><path d="m45 12h-6c-.5 0-.9-.3-1-.8l-1-4c-.1-.3 0-.6.2-.9s.5-.3.8-.3h8c.3 0 .6.1.8.4s.2.5.2.8l-1 4c-.1.5-.5.8-1 .8zm-5.2-2h4.4l.5-2h-5.4z" fill="#f80d8e" fill-opacity="1" data-original-color="#000000ff" stroke="none" stroke-opacity="1"/></g><g><path d="m61 26h-54c-.6 0-1-.4-1-1s.4-1 1-1h54c.6 0 1 .4 1 1s-.4 1-1 1z" fill="#f80d8e" fill-opacity="1" data-original-color="#000000ff" stroke="none" stroke-opacity="1"/></g><g><path d="m61 32h-54c-.6 0-1-.4-1-1s.4-1 1-1h54c.6 0 1 .4 1 1s-.4 1-1 1z" fill="#f80d8e" fill-opacity="1" data-original-color="#000000ff" stroke="none" stroke-opacity="1"/></g><g><path d="m61 38h-54c-.6 0-1-.4-1-1s.4-1 1-1h54c.6 0 1 .4 1 1s-.4 1-1 1z" fill="#f80d8e" fill-opacity="1" data-original-color="#000000ff" stroke="none" stroke-opacity="1"/></g></g></g></svg>