<svg height="300" viewBox="0 0 128 128" width="300" xmlns="http://www.w3.org/2000/svg" version="1.1" xmlns:xlink="http://www.w3.org/1999/xlink" xmlns:svgjs="http://svgjs.dev/svgjs"><g width="100%" height="100%" transform="matrix(1,0,0,1,0,0)"><g><path d="m44.337 20.389h26.4a1.75 1.75 0 0 0 0-3.5h-26.4a1.75 1.75 0 0 0 0 3.5z" fill="#f80d8e" fill-opacity="1" data-original-color="#000000ff" stroke="none" stroke-opacity="1"/><path d="m83.935 33.316a1.75 1.75 0 0 0 0-3.5h-52.8a1.75 1.75 0 1 0 0 3.5z" fill="#f80d8e" fill-opacity="1" data-original-color="#000000ff" stroke="none" stroke-opacity="1"/><path d="m121 42.744h-23.677v-35.744a1.749 1.749 0 0 0 -1.75-1.75h-60.495a1.75 1.75 0 0 0 -1.237.513l-15.579 15.579a1.75 1.75 0 0 0 -.513 1.237v20.165h-10.749a1.749 1.749 0 0 0 -1.75 1.75v70.042a8.224 8.224 0 0 0 8.214 8.214h101.072a8.224 8.224 0 0 0 8.214-8.214v-70.042a1.749 1.749 0 0 0 -1.75-1.75zm-87.672-31.519v9.6h-9.6zm-12.079 13.1h13.829a1.749 1.749 0 0 0 1.75-1.75v-13.825h56.995v46.922h-53.8l-5.761-9.428h49.673a1.75 1.75 0 0 0 0-3.5h-62.686zm-7.785 94.925a4.718 4.718 0 0 1 -4.714-4.714v-68.292h21.405l7.388 12.09a1.75 1.75 0 0 0 1.493.838h67.286v55.364a8.174 8.174 0 0 0 1.49 4.714zm105.786-4.714a4.714 4.714 0 0 1 -9.428 0v-57.114a1.749 1.749 0 0 0 -1.75-1.75h-10.749v-9.428h21.927z" fill="#f80d8e" fill-opacity="1" data-original-color="#000000ff" stroke="none" stroke-opacity="1"/><path d="m57.536 66.6a22.608 22.608 0 1 0 22.608 22.611 22.633 22.633 0 0 0 -22.608-22.611zm-10.819 38.34v-7.151a2.152 2.152 0 0 1 1.567-2.066l5.687-1.593a9.151 9.151 0 0 0 7.13 0l5.686 1.592a2.154 2.154 0 0 1 1.568 2.067v7.154a19.028 19.028 0 0 1 -21.638 0zm10.819-13.59a5.656 5.656 0 1 1 5.656-5.65 5.663 5.663 0 0 1 -5.656 5.653zm14.319 10.47v-4.031a5.665 5.665 0 0 0 -4.124-5.437l-3.106-.87a9.156 9.156 0 1 0 -14.178 0l-3.107.871a5.664 5.664 0 0 0 -4.123 5.436v4.031a19.108 19.108 0 1 1 28.638 0z" fill="#f80d8e" fill-opacity="1" data-original-color="#000000ff" stroke="none" stroke-opacity="1"/></g></g></svg>