<svg viewBox="0 0 48 41.862" xmlns="http://www.w3.org/2000/svg" width="300" height="300" version="1.1" xmlns:xlink="http://www.w3.org/1999/xlink" xmlns:svgjs="http://svgjs.dev/svgjs"><g width="100%" height="100%" transform="matrix(1,0,0,1,0,0)"><g id="Layer_2" data-name="Layer 2"><g id="Layer_1-2" data-name="Layer 1"><g id="favorite_lessons" fill="#1a171b" data-name="favorite lessons"><path d="m47.272 3.213h-3.764v-2.365a.727.727 0 0 0 -.727-.728h-22.851a3.921 3.921 0 0 0 -3.16 1.605 3.941 3.941 0 0 0 -3.257-1.725h-8.353a.726.726 0 0 0 -.727.727v2.486h-3.706a.727.727 0 0 0 -.727.728v37.2a.727.727 0 0 0 .727.726h46.545a.727.727 0 0 0 .728-.731v-37.195a.727.727 0 0 0 -.728-.728zm-10.448-1.638v17.608l-6.736-3.483a.729.729 0 0 0 -.668 0l-6.736 3.479v-17.604zm-19.37 2.477a2.479 2.479 0 0 1 2.476-2.477h1.3v18.8a.728.728 0 0 0 1.061.648l7.463-3.856 7.463 3.856a.753.753 0 0 0 .334.08.727.727 0 0 0 .727-.728v-18.8h3.776v34.8h-22.124a3.906 3.906 0 0 0 -2.476.881zm-11.567-2.598h7.626a2.489 2.489 0 0 1 2.487 2.487v33.313a3.923 3.923 0 0 0 -2.486-.885h-7.627zm-4.432 3.213h2.978v32.433a.726.726 0 0 0 .727.727h8.353a2.489 2.489 0 0 1 2.487 2.483.81.81 0 0 0 .02.1h-14.565zm45.091 35.741h-29.112a.655.655 0 0 0 .02-.1 2.478 2.478 0 0 1 2.476-2.476h22.851a.726.726 0 0 0 .727-.727v-32.438h3.038z" fill="#f80d8e" fill-opacity="1" data-original-color="#1a171bff" stroke="none" stroke-opacity="1"/><path d="m26.679 9.614-.479 2.786a.726.726 0 0 0 .717.849.718.718 0 0 0 .339-.084l2.5-1.312 2.5 1.312a.727.727 0 0 0 1.056-.765l-.482-2.786 2.02-1.969a.728.728 0 0 0 -.4-1.241l-2.795-.404-1.248-2.53a.728.728 0 0 0 -1.3 0l-1.253 2.53-2.793.4a.728.728 0 0 0 -.4 1.241zm1.762-2.231a.725.725 0 0 0 .547-.4l.766-1.55.766 1.55a.725.725 0 0 0 .547.4l1.712.249-1.238 1.207a.728.728 0 0 0 -.21.644l.293 1.706-1.531-.8a.724.724 0 0 0 -.677 0l-1.532.8.293-1.706a.727.727 0 0 0 -.209-.644l-1.239-1.207z" fill="#f80d8e" fill-opacity="1" data-original-color="#1a171bff" stroke="none" stroke-opacity="1"/><path d="m21.957 24.45h15.594a.728.728 0 0 0 0-1.455h-15.594a.728.728 0 0 0 0 1.455z" fill="#f80d8e" fill-opacity="1" data-original-color="#1a171bff" stroke="none" stroke-opacity="1"/><path d="m21.957 28.814h15.594a.728.728 0 0 0 0-1.455h-15.594a.728.728 0 0 0 0 1.455z" fill="#f80d8e" fill-opacity="1" data-original-color="#1a171bff" stroke="none" stroke-opacity="1"/><path d="m21.957 33.178h11.23a.728.728 0 0 0 0-1.455h-11.23a.728.728 0 0 0 0 1.455z" fill="#f80d8e" fill-opacity="1" data-original-color="#1a171bff" stroke="none" stroke-opacity="1"/></g></g></g></g></svg>