<svg height="300" viewBox="0 0 28 28" width="300" xmlns="http://www.w3.org/2000/svg" version="1.1" xmlns:xlink="http://www.w3.org/1999/xlink" xmlns:svgjs="http://svgjs.dev/svgjs"><g width="100%" height="100%" transform="matrix(1,0,0,1,0,0)"><g id="Layer_2" data-name="Layer 2"><path d="m25.278 9.016h-16.659l16.37-3.093a.5.5 0 0 0 .4-.584l-.559-2.947a.5.5 0 0 0 -.584-.4l-21.617 4.085a.5.5 0 0 0 -.4.584l.548 2.9v14.106a2.352 2.352 0 0 0 2.349 2.349h18.3a2.35 2.35 0 0 0 2.347-2.349v-14.151a.5.5 0 0 0 -.495-.5zm-.5 3h-1.232l-1.333-2h2.565zm-5.232 0-1.333-2h2.8l1.333 2zm-4 0-1.333-2h2.8l1.333 2zm-4 0-1.333-2h2.8l1.333 2zm-4 0-1.333-2h2.8l1.333 2zm.901-6.016 1.682 1.718-2.75.519-1.679-1.722zm3.931-.742 1.682 1.712-2.75.52-1.682-1.718zm3.93-.743 1.681 1.718-2.748.519-1.682-1.722zm3.931-.742 1.681 1.713-2.75.519-1.681-1.718zm-16.461 6.243h1.233l1.333 2h-2.566zm20.535-4.982-1.213.229-1.68-1.719 2.52-.476zm-19.8 1.7 1.687 1.721-2.521.477-.373-1.966zm18.918 18.282h-18.304a1.351 1.351 0 0 1 -1.349-1.349v-10.651h21v10.651a1.349 1.349 0 0 1 -1.347 1.349z" fill="#f80d8e" fill-opacity="1" data-original-color="#000000ff" stroke="none" stroke-opacity="1"/><path d="m12.535 15.087a.5.5 0 0 0 -.757.429v7a.5.5 0 0 0 .5.5.5.5 0 0 0 .257-.072l5.833-3.5a.5.5 0 0 0 0-.857zm.243 6.545v-5.232l4.362 2.617z" fill="#f80d8e" fill-opacity="1" data-original-color="#000000ff" stroke="none" stroke-opacity="1"/></g></g></svg>