<svg id="Capa_1" enable-background="new 0 0 512 512" height="300" viewBox="0 0 512 512" width="300" xmlns="http://www.w3.org/2000/svg" version="1.1" xmlns:xlink="http://www.w3.org/1999/xlink" xmlns:svgjs="http://svgjs.dev/svgjs"><g width="100%" height="100%" transform="matrix(1,0,0,1,0,0)"><g><g id="Page-1_29_"><g id="_x30_30---Advert-Ideas"><path id="Shape_124_" d="m134.981 333.653c22.504 22.397 35.318 52.732 35.686 84.48v34.133c0 14.138 11.462 25.6 25.6 25.6 0 18.851 15.282 34.133 34.133 34.133h51.2c18.851 0 34.133-15.282 34.133-34.133 14.138 0 25.6-11.462 25.6-25.6v-34.133c.368-31.748 13.183-62.083 35.686-84.48 66.373-66.748 66.17-174.633-.454-241.131s-174.509-66.498-241.132 0-66.825 174.383-.452 241.131zm146.62 161.28h-51.2c-9.426 0-17.067-7.641-17.067-17.067h85.333c0 9.426-7.641 17.067-17.066 17.067zm42.666-42.666c0 4.713-3.821 8.533-8.533 8.533h-119.467c-4.713 0-8.533-3.82-8.533-8.533v-25.6h136.533zm-68.266-392.534c62.028.016 117.959 37.339 141.781 94.611s10.858 123.25-32.861 167.252c-23.519 23.567-37.788 54.798-40.209 88.004h-137.388c-2.421-33.206-16.691-64.438-40.209-88.004-43.715-43.997-56.681-109.968-32.868-167.236s79.732-94.597 141.754-94.627z" fill="#f80d8e" fill-opacity="1" data-original-color="#000000ff" stroke="none" stroke-opacity="1"/><g clip-rule="evenodd" fill-rule="evenodd"><path id="Path_122_" d="m264.534 17.067v-8.534c0-4.713-3.821-8.533-8.533-8.533-4.713 0-8.533 3.821-8.533 8.533v8.533c0 4.713 3.821 8.533 8.533 8.533 4.712.001 8.533-3.82 8.533-8.532z" fill="#f80d8e" fill-opacity="1" data-original-color="#000000ff" stroke="none" stroke-opacity="1"/><path id="Path_121_" d="m187.836 37.444c1.006.001 2.004-.181 2.944-.538 2.124-.782 3.851-2.375 4.8-4.43s1.043-4.403.261-6.527l-2.987-8.03c-1.055-2.861-3.556-4.942-6.561-5.459s-6.058.608-8.009 2.953c-1.95 2.344-2.502 5.551-1.447 8.412l2.953 8.021c1.236 3.375 4.453 5.613 8.046 5.598z" fill="#f80d8e" fill-opacity="1" data-original-color="#000000ff" stroke="none" stroke-opacity="1"/><path id="Path_120_" d="m127.898 71.518c3.329.001 6.355-1.935 7.75-4.958s.905-6.581-1.256-9.114l-5.538-6.537c-3.063-3.586-8.454-4.011-12.041-.947-3.586 3.063-4.011 8.454-.947 12.041l5.581 6.537c1.611 1.889 3.969 2.977 6.451 2.978z" fill="#f80d8e" fill-opacity="1" data-original-color="#000000ff" stroke="none" stroke-opacity="1"/><path id="Path_119_" d="m87.629 107.776-7.509-4.267c-4.1-2.33-9.313-.896-11.644 3.204-2.33 4.1-.896 9.313 3.204 11.644l7.509 4.267c4.1 2.33 9.313.896 11.644-3.204s.897-9.314-3.204-11.644z" fill="#f80d8e" fill-opacity="1" data-original-color="#000000ff" stroke="none" stroke-opacity="1"/><path id="Path_118_" d="m61.193 170.846-8.533-1.485c-4.644-.806-9.063 2.306-9.869 6.95s2.306 9.063 6.95 9.869l8.533 1.476c4.585.687 8.88-2.412 9.672-6.979.794-4.568-2.205-8.933-6.753-9.831z" fill="#f80d8e" fill-opacity="1" data-original-color="#000000ff" stroke="none" stroke-opacity="1"/><path id="Path_117_" d="m51.201 257.425c.492.002.983-.038 1.468-.119l8.533-1.485c4.548-.898 7.547-5.264 6.754-9.831s-5.088-7.667-9.672-6.979l-8.533 1.476c-4.356.763-7.407 4.727-7.03 9.134.376 4.405 4.057 7.793 8.48 7.804z" fill="#f80d8e" fill-opacity="1" data-original-color="#000000ff" stroke="none" stroke-opacity="1"/><path id="Path_116_" d="m79.19 304.043-7.509 4.267c-4.1 2.331-5.535 7.544-3.204 11.644 2.33 4.1 7.544 5.535 11.644 3.204l7.509-4.267c2.652-1.508 4.299-4.316 4.32-7.366.021-3.051-1.588-5.881-4.22-7.424s-5.888-1.566-8.54-.058z" fill="#f80d8e" fill-opacity="1" data-original-color="#000000ff" stroke="none" stroke-opacity="1"/><path id="Path_115_" d="m121.413 358.144-5.581 6.536c-1.468 1.723-2.191 3.959-2.011 6.216.181 2.257 1.251 4.349 2.975 5.816 3.585 3.054 8.966 2.626 12.023-.956l5.572-6.537c3.063-3.584 2.641-8.973-.943-12.036s-8.973-2.641-12.036.943v.018z" fill="#f80d8e" fill-opacity="1" data-original-color="#000000ff" stroke="none" stroke-opacity="1"/><path id="Path_114_" d="m378.565 357.188c-1.723 1.469-2.791 3.561-2.97 5.818s.545 4.492 2.015 6.214l5.572 6.537c3.063 3.586 8.454 4.011 12.041.947 3.586-3.063 4.011-8.454.947-12.041l-5.581-6.537c-3.063-3.575-8.444-3.996-12.024-.938z" fill="#f80d8e" fill-opacity="1" data-original-color="#000000ff" stroke="none" stroke-opacity="1"/><path id="Path_113_" d="m440.321 308.309-7.509-4.267c-4.1-2.331-9.313-.896-11.644 3.204s-.896 9.313 3.204 11.644l7.509 4.267c4.1 2.331 9.313.896 11.644-3.204 2.33-4.1.896-9.313-3.204-11.644z" fill="#f80d8e" fill-opacity="1" data-original-color="#000000ff" stroke="none" stroke-opacity="1"/><path id="Path_112_" d="m450.808 255.821 8.533 1.485c3.004.521 6.059-.6 8.013-2.941s2.51-5.547 1.459-8.41-3.549-4.947-6.553-5.469l-8.533-1.476c-4.585-.687-8.88 2.412-9.672 6.979s2.205 8.934 6.753 9.832z" fill="#f80d8e" fill-opacity="1" data-original-color="#000000ff" stroke="none" stroke-opacity="1"/><path id="Path_111_" d="m459.341 169.361-8.533 1.485c-3.061.459-5.634 2.54-6.723 5.438s-.523 6.158 1.479 8.52c2.002 2.361 5.126 3.453 8.163 2.853l8.533-1.476c3.004-.521 5.503-2.606 6.553-5.469s.495-6.068-1.459-8.41c-1.954-2.341-5.008-3.462-8.013-2.941z" fill="#f80d8e" fill-opacity="1" data-original-color="#000000ff" stroke="none" stroke-opacity="1"/><path id="Path_110_" d="m431.881 103.509-7.509 4.267c-4.1 2.33-5.535 7.544-3.204 11.644 2.33 4.1 7.544 5.535 11.644 3.204l7.509-4.267c4.1-2.33 5.535-7.544 3.204-11.644s-7.544-5.534-11.644-3.204z" fill="#f80d8e" fill-opacity="1" data-original-color="#000000ff" stroke="none" stroke-opacity="1"/><path id="Path_109_" d="m384.103 71.518c2.497.005 4.87-1.091 6.485-2.995l5.581-6.537c3.063-3.586 2.639-8.977-.947-12.041s-8.977-2.639-12.041.947l-5.572 6.537c-2.161 2.533-2.651 6.091-1.256 9.114s4.421 4.958 7.75 4.958z" fill="#f80d8e" fill-opacity="1" data-original-color="#000000ff" stroke="none" stroke-opacity="1"/><path id="Path_108_" d="m324.165 37.444c3.579.001 6.778-2.23 8.013-5.589l2.953-8.021c1.342-4.331-.938-8.955-5.19-10.529-4.252-1.573-8.993.454-10.793 4.615l-2.953 8.021c-.782 2.124-.688 4.472.261 6.527s2.676 3.648 4.8 4.43c.928.355 1.914.54 2.909.546z" fill="#f80d8e" fill-opacity="1" data-original-color="#000000ff" stroke="none" stroke-opacity="1"/></g><path id="Shape_123_" d="m153.601 247.467h10.103c2.771 7.775 9.128 13.732 17.067 15.991l12.22 48.973c1.766 6.965 8.038 11.841 15.223 11.836h15.113c8.67-.08 15.645-7.151 15.607-15.821v-42.616l51.2 29.252v3.584c0 14.138 11.461 25.6 25.6 25.6s25.6-11.462 25.6-25.6v-170.666c0-14.138-11.462-25.6-25.6-25.6s-25.6 11.462-25.6 25.6v3.584l-53.461 30.549h-48.939c-10.81.045-20.427 6.875-24.03 17.067h-10.103c-14.138 0-25.6 11.462-25.6 25.6v17.067c0 14.138 11.461 25.6 25.6 25.6zm68.266 59.733h-12.553l-10.658-42.667h23.211zm85.334-179.2c0-4.713 3.82-8.533 8.533-8.533s8.533 3.821 8.533 8.533v170.667c0 4.713-3.821 8.533-8.533 8.533s-8.533-3.82-8.533-8.533zm-17.067 147.43-42.667-24.38v-41.685l21.803-14.507c3.921-2.616 4.979-7.915 2.364-11.836-2.616-3.921-7.915-4.979-11.836-2.364l-12.331 8.201v-13.244l42.667-24.38zm-102.4-96.23h42.667v17.067h-25.6c-4.713 0-8.533 3.821-8.533 8.533 0 4.713 3.821 8.533 8.533 8.533h25.6v34.133h-42.667c-4.713 0-8.533-3.821-8.533-8.533v-51.2c0-4.712 3.82-8.533 8.533-8.533zm-42.667 25.6c0-4.713 3.821-8.533 8.533-8.533h8.533v34.133h-8.533c-4.713 0-8.533-3.821-8.533-8.533z" fill="#f80d8e" fill-opacity="1" data-original-color="#000000ff" stroke="none" stroke-opacity="1"/></g></g></g></g></svg>