<svg id="Layer_1" viewBox="0 0 24 24" xmlns="http://www.w3.org/2000/svg" data-name="Layer 1" width="300" height="300" version="1.1" xmlns:xlink="http://www.w3.org/1999/xlink" xmlns:svgjs="http://svgjs.dev/svgjs"><g width="100%" height="100%" transform="matrix(1,0,0,1,0,0)"><g fill="rgb(0,0,0)"><circle cx="4.5" cy="3.5" r=".5" fill="#f80d8e" fill-opacity="1" data-original-color="#000000ff" stroke="none" stroke-opacity="1"/><circle cx="7.5" cy="3.5" r=".5" fill="#f80d8e" fill-opacity="1" data-original-color="#000000ff" stroke="none" stroke-opacity="1"/><circle cx="10.5" cy="3.5" r=".5" fill="#f80d8e" fill-opacity="1" data-original-color="#000000ff" stroke="none" stroke-opacity="1"/><path d="m15 15.25h4c.69 0 1.25-.56 1.25-1.25s-.56-1.25-1.25-1.25h-4c-.69 0-1.25.56-1.25 1.25s.56 1.25 1.25 1.25zm0-2h4c.41 0 .75.34.75.75s-.34.75-.75.75h-4c-.41 0-.75-.34-.75-.75s.34-.75.75-.75z" fill="#f80d8e" fill-opacity="1" data-original-color="#000000ff" stroke="none" stroke-opacity="1"/><path d="m14 7.25h6c.14 0 .25-.11.25-.25s-.11-.25-.25-.25h-6c-.14 0-.25.11-.25.25s.11.25.25.25z" fill="#f80d8e" fill-opacity="1" data-original-color="#000000ff" stroke="none" stroke-opacity="1"/><path d="m14 9.25h6c.14 0 .25-.11.25-.25s-.11-.25-.25-.25h-6c-.14 0-.25.11-.25.25s.11.25.25.25z" fill="#f80d8e" fill-opacity="1" data-original-color="#000000ff" stroke="none" stroke-opacity="1"/><path d="m14 11.25h6c.14 0 .25-.11.25-.25s-.11-.25-.25-.25h-6c-.14 0-.25.11-.25.25s.11.25.25.25z" fill="#f80d8e" fill-opacity="1" data-original-color="#000000ff" stroke="none" stroke-opacity="1"/><path d="m4 18.25h16c.14 0 .25-.11.25-.25s-.11-.25-.25-.25h-16c-.14 0-.25.11-.25.25s.11.25.25.25z" fill="#f80d8e" fill-opacity="1" data-original-color="#000000ff" stroke="none" stroke-opacity="1"/><path d="m4 20.25h16c.14 0 .25-.11.25-.25s-.11-.25-.25-.25h-16c-.14 0-.25.11-.25.25s.11.25.25.25z" fill="#f80d8e" fill-opacity="1" data-original-color="#000000ff" stroke="none" stroke-opacity="1"/><path d="m5 15.25h6c.69 0 1.25-.56 1.25-1.25v-6c0-.69-.56-1.25-1.25-1.25h-6c-.69 0-1.25.56-1.25 1.25v6c0 .69.56 1.25 1.25 1.25zm6-.5h-6c-.38 0-.69-.29-.73-.66l4.09-4.09c.16-.16.36-.24.59-.22.22.02.42.12.54.3l2.26 3.01v.92c0 .41-.34.75-.75.75zm-6-7.5h6c.41 0 .75.34.75.75v4.25l-1.86-2.48c-.22-.29-.55-.47-.91-.49s-.72.11-.98.37l-3.75 3.75v-5.4c0-.41.34-.75.75-.75z" fill="#f80d8e" fill-opacity="1" data-original-color="#000000ff" stroke="none" stroke-opacity="1"/><path d="m21 1.75h-3c-.14 0-.25.11-.25.25s.11.25.25.25h3c.41 0 .75.34.75.75v1.75h-19.5v-1.75c0-.41.34-.75.75-.75h13.64c.14 0 .25-.11.25-.25s-.11-.25-.25-.25h-13.64c-.69 0-1.25.56-1.25 1.25v12.16c0 .14.11.25.25.25s.25-.11.25-.25v-9.91h19.5v15.75c0 .41-.34.75-.75.75h-12c-.14 0-.25.11-.25.25s.11.25.25.25h12c.69 0 1.25-.56 1.25-1.25v-18c0-.69-.56-1.25-1.25-1.25z" fill="#f80d8e" fill-opacity="1" data-original-color="#000000ff" stroke="none" stroke-opacity="1"/><path d="m3 22.25h4.64c.14 0 .25-.11.25-.25s-.11-.25-.25-.25h-4.64c-.41 0-.75-.34-.75-.75v-4.48c0-.14-.11-.25-.25-.25s-.25.11-.25.25v4.48c0 .69.56 1.25 1.25 1.25z" fill="#f80d8e" fill-opacity="1" data-original-color="#000000ff" stroke="none" stroke-opacity="1"/></g></g></svg>