<svg id="Layer_1" enable-background="new 0 0 70 70" height="300" viewBox="0 0 70 70" width="300" xmlns="http://www.w3.org/2000/svg" version="1.1" xmlns:xlink="http://www.w3.org/1999/xlink" xmlns:svgjs="http://svgjs.dev/svgjs"><g width="100%" height="100%" transform="matrix(1,0,0,1,0,0)"><g><path d="m5.913 24.047v4.316c0 1.133.921 2.054 2.054 2.054h2.241l16.8 24.48v10.934c0 .652.302 1.246.829 1.631.353.257.763.389 1.182.389.208 0 .417-.032.623-.099l11.95-3.837c.838-.27 1.4-1.042 1.4-1.921v-7.097l16.8-24.48h2.241c1.133 0 2.054-.921 2.054-2.054v-4.316c0-1.133-.921-2.055-2.054-2.055h-24.546c2.248-2.14 3.559-5.094 3.559-8.271 0-6.309-5.132-11.44-11.439-11.44-6.309 0-11.44 5.132-11.44 11.44 0 3.179 1.313 6.133 3.565 8.271h-13.765c-1.133.001-2.054.923-2.054 2.055zm13.753-10.326c0-5.481 4.459-9.94 9.94-9.94 5.48 0 9.939 4.459 9.939 9.94 0 3.34-1.646 6.416-4.413 8.271h-11.043c-2.774-1.853-4.423-4.928-4.423-8.271zm21.826 48.274c0 .226-.145.424-.359.493l-11.95 3.837c-.161.05-.329.023-.462-.074-.136-.099-.213-.252-.213-.419v-10.417h12.984zm14.734-29.033h-14.807c-.414 0-.75.336-.75.75s.336.75.75.75h13.778l-13.349 19.453h-13.696l-16.125-23.498h45.945zm6.361-8.915v4.316c0 .306-.248.554-.554.554-11.031 0-43.049 0-54.066 0-.306 0-.554-.248-.554-.554v-4.316c0-.306.248-.555.554-.555h54.066c.306.001.554.25.554.555z" fill="#f80d8e" fill-opacity="1" data-original-color="#000000ff" stroke="none" stroke-opacity="1"/><path d="m13.691 41.239c-.341.234-.428.701-.193 1.043l5.146 7.498c.146.211.38.325.619.325.146 0 .294-.043.424-.132.341-.234.428-.701.193-1.043l-5.146-7.498c-.234-.339-.7-.429-1.043-.193z" fill="#f80d8e" fill-opacity="1" data-original-color="#000000ff" stroke="none" stroke-opacity="1"/><path d="m20.419 51.042c-.341.234-.428.701-.193 1.043l.86 1.253c.146.212.38.325.619.325.146 0 .294-.043.424-.132.341-.234.428-.701.193-1.043l-.86-1.253c-.234-.341-.699-.429-1.043-.193z" fill="#f80d8e" fill-opacity="1" data-original-color="#000000ff" stroke="none" stroke-opacity="1"/><path d="m19.371 4.267c.16-.173.324-.342.493-.507.295-.291.299-.766.009-1.061-.291-.294-.765-.3-1.062-.01-.185.183-.366.369-.542.56-.281.304-.263.778.042 1.06.306.282.781.261 1.06-.042z" fill="#f80d8e" fill-opacity="1" data-original-color="#000000ff" stroke="none" stroke-opacity="1"/><path d="m17.241 5.761c-.356-.206-.816-.083-1.024.276-1.342 2.33-2.051 4.986-2.051 7.684 0 1.558.23 3.097.686 4.572.123.398.543.617.938.496.396-.122.618-.542.496-.938-.411-1.333-.619-2.723-.619-4.131 0-2.435.64-4.833 1.852-6.936.205-.357.082-.816-.278-1.023z" fill="#f80d8e" fill-opacity="1" data-original-color="#000000ff" stroke="none" stroke-opacity="1"/><path d="m29.607 17.583c-.856 0-1.554-.697-1.554-1.554 0-.414-.336-.75-.75-.75s-.75.336-.75.75c0 1.423.984 2.613 2.304 2.949v.722c0 .414.336.75.75.75s.75-.336.75-.75v-.722c1.32-.337 2.304-1.526 2.304-2.949 0-1.684-1.37-3.054-3.054-3.054-.856 0-1.554-.697-1.554-1.554s.697-1.554 1.554-1.554 1.554.697 1.554 1.554c0 .414.336.75.75.75s.75-.336.75-.75c0-1.423-.984-2.613-2.304-2.949v-.722c0-.414-.336-.75-.75-.75s-.75.336-.75.75v.722c-1.32.337-2.304 1.526-2.304 2.949 0 1.684 1.37 3.054 3.054 3.054.856 0 1.554.697 1.554 1.554s-.697 1.554-1.554 1.554z" fill="#f80d8e" fill-opacity="1" data-original-color="#000000ff" stroke="none" stroke-opacity="1"/><path d="m62.63 11.233c0-5.009-4.075-9.084-9.084-9.084s-9.084 4.075-9.084 9.084 4.075 9.084 9.084 9.084 9.084-4.075 9.084-9.084zm-16.668 0c0-4.182 3.402-7.584 7.584-7.584s7.584 3.402 7.584 7.584-3.402 7.584-7.584 7.584-7.584-3.402-7.584-7.584z" fill="#f80d8e" fill-opacity="1" data-original-color="#000000ff" stroke="none" stroke-opacity="1"/><path d="m54.296 15.891v-.442c1.036-.322 1.796-1.279 1.796-2.42 0-1.404-1.142-2.546-2.546-2.546-.577 0-1.047-.47-1.047-1.047s.47-1.046 1.047-1.046 1.046.469 1.046 1.046c0 .414.336.75.75.75s.75-.336.75-.75c0-1.141-.759-2.098-1.796-2.42v-.442c0-.414-.336-.75-.75-.75s-.75.336-.75.75v.442c-1.037.322-1.797 1.279-1.797 2.42 0 1.404 1.143 2.547 2.547 2.547.577 0 1.046.469 1.046 1.046s-.469 1.046-1.046 1.046-1.047-.469-1.047-1.046c0-.414-.336-.75-.75-.75s-.75.336-.75.75c0 1.142.76 2.098 1.797 2.42v.442c0 .414.336.75.75.75s.75-.336.75-.75z" fill="#f80d8e" fill-opacity="1" data-original-color="#000000ff" stroke="none" stroke-opacity="1"/><path d="m37.254 34.462h1.232c.414 0 .75-.336.75-.75s-.336-.75-.75-.75h-1.232c-.414 0-.75.336-.75.75s.336.75.75.75z" fill="#f80d8e" fill-opacity="1" data-original-color="#000000ff" stroke="none" stroke-opacity="1"/></g></g></svg>