<svg clip-rule="evenodd" fill-rule="evenodd" height="300" image-rendering="optimizeQuality" shape-rendering="geometricPrecision" text-rendering="geometricPrecision" viewBox="0 0 18062 18062" width="300" xmlns="http://www.w3.org/2000/svg" version="1.1" xmlns:xlink="http://www.w3.org/1999/xlink" xmlns:svgjs="http://svgjs.dev/svgjs"><g width="100%" height="100%" transform="matrix(1,0,0,1,0,0)"><g id="Layer_x0020_1"><path d="m8779 7068h-7064c-170 0-307-137-307-307 0-169 137-307 307-307h7064c169 0 307 138 307 307 0 170-138 307-307 307zm-8779-4442v-2297c0-170 137-307 307-307h17448c170 0 307 137 307 307v12520c0 169-137 307-307 307h-6858v209c0 170-137 307-307 307h-1265v2660c0 217-218 364-418 285l-4107-1608h-405v2724c0 170-138 307-307 307h-1603c-169 0-306-137-306-307v-2724h-464c-170 0-307-138-307-307v-1546h-1101c-170 0-307-138-307-307zm17449-307v-1683h-16835v1683zm-6552 10223h6552v-9610h-16835v9610h794v-2534c0-170 137-307 307-307h3085l4107-1609c200-78 418 70 418 286v2660h1265c170 0 307 137 307 306zm-8875 306v1547h2530v-4080h-2530zm358-11064h-826c-170 0-307-137-307-307 0-169 137-307 307-307l826 1c169 0 307 137 307 306 0 170-138 307-307 307zm2105 0h-826c-169 0-306-137-306-307 0-169 137-307 306-307l826 1c170 0 307 137 307 306 0 170-137 307-307 307zm2106 0h-826c-170 0-307-137-307-307 0-169 137-307 307-307l826 1c169 0 307 137 307 306 0 170-138 307-307 307zm-1426 12709 3547 1389v-7054l-3547 1389zm-2373 2934h989v-2418h-989zm6533-4368h959v-1408h-959zm3951-2733c-1863 0-3379-1515-3379-3378s1516-3379 3379-3379 3378 1516 3378 3379-1515 3378-3378 3378zm0-6143c-1525 0-2766 1240-2766 2765 0 1524 1241 2765 2766 2765 1524 0 2765-1241 2765-2765 0-1525-1241-2765-2765-2765zm0 4964c-170 0-307-137-307-307v-155h-409c-169 0-306-137-306-307 0-169 137-307 306-307h1124v-817h-1124c-169 0-306-137-306-306v-1431c0-169 137-306 306-306h409v-156c0-169 137-306 307-306 169 0 306 137 306 306v156h409c169 0 307 137 307 306 0 170-138 307-307 307h-1124v817h1124c169 0 307 137 307 307v1430c0 170-138 307-307 307h-409v155c0 169-137 307-306 307zm-6210-4964h-3638c-169 0-306-138-306-307s137-307 306-307h3638c169 0 306 138 306 307s-137 307-306 307zm1713 1442h-7064c-170 0-307-137-307-306 0-170 137-307 307-307h7064c169 0 307 137 307 307 0 169-138 306-307 306z" fill="#f80d8e" fill-opacity="1" data-original-color="#000000ff" stroke="none" stroke-opacity="1"/></g></g></svg>