<svg width="16" height="16" viewBox="0 0 16 16" fill="none" xmlns="http://www.w3.org/2000/svg">
<path d="M13.204 1.465C13.584 1.632 14 1.948 14 2.5C14 3.038 13.61 3.357 13.24 3.531C12.865 3.706 12.37 3.807 11.841 3.871C10.781 4 9.381 4 8.026 4H8C6.614 4 5.273 4 4.279 4.121C3.777 4.183 3.412 4.26767 3.184 4.375C3.11695 4.40076 3.05624 4.44067 3.006 4.492L3.003 4.496C3.015 4.522 3.078 4.626 3.378 4.748C3.736 4.895 4.29 5 5 5V6C4.209 6 3.514 5.886 2.997 5.673C2.526 5.48 2 5.11 2 4.5C2 3.962 2.39 3.643 2.76 3.469C3.135 3.294 3.63 3.193 4.159 3.129C5.219 3 6.619 3 7.974 3H8C9.386 3 10.727 3 11.721 2.879C12.223 2.817 12.588 2.73233 12.816 2.625C12.883 2.59924 12.9438 2.55933 12.994 2.508L12.998 2.504L12.996 2.502C12.939 2.44856 12.8721 2.40678 12.799 2.379C12.5523 2.26967 12.1597 2.184 11.621 2.122C10.555 2 9.107 2 7.577 2C7.44439 2 7.31722 1.94732 7.22345 1.85355C7.12968 1.75979 7.077 1.63261 7.077 1.5C7.077 1.36739 7.12968 1.24021 7.22345 1.14645C7.31722 1.05268 7.44439 1 7.577 1H7.602C9.102 1 10.605 1 11.734 1.128C12.297 1.192 12.814 1.292 13.204 1.465ZM7.499 6C7.36639 6 7.23921 6.05268 7.14545 6.14645C7.05168 6.24021 6.999 6.36739 6.999 6.5V10.5C6.99905 10.5866 6.97659 10.6718 6.93382 10.7471C6.89106 10.8224 6.82945 10.8854 6.75505 10.9297C6.68064 10.9741 6.59599 10.9984 6.50938 11.0002C6.42277 11.002 6.33718 10.9812 6.261 10.94L5.183 10.358C5.0808 10.3028 4.96801 10.2699 4.85213 10.2617C4.73626 10.2535 4.61996 10.27 4.51097 10.3102C4.40198 10.3504 4.30281 10.4134 4.22005 10.4949C4.13729 10.5764 4.07284 10.6746 4.031 10.783L6.366 12.362C7.1 12.762 7.648 13.317 7.988 13.727C8.159 13.933 8.394 14.024 8.591 13.994L10.491 13.706C10.5886 13.6911 10.6797 13.6477 10.7527 13.5811C10.8256 13.5145 10.8772 13.4279 10.901 13.332L11.454 11.114C11.5045 10.9114 11.5122 10.7005 11.4766 10.4948C11.4409 10.289 11.3627 10.093 11.2469 9.91923C11.1311 9.74547 10.9803 9.59779 10.8042 9.48565C10.628 9.37351 10.4304 9.29938 10.224 9.268L8.424 8.994C8.30598 8.97585 8.19836 8.91607 8.12059 8.82546C8.04282 8.73485 8.00005 8.6194 8 8.5V6.5C8 6.36739 7.94732 6.24021 7.85355 6.14645C7.75979 6.05268 7.63161 6 7.499 6ZM6 6.5C6 6.10218 6.15804 5.72064 6.43934 5.43934C6.72064 5.15804 7.10218 5 7.5 5C7.89782 5 8.27936 5.15804 8.56066 5.43934C8.84196 5.72064 9 6.10218 9 6.5V8.07L10.375 8.28C10.719 8.33231 11.0483 8.45584 11.3418 8.6427C11.6353 8.82955 11.8865 9.07562 12.0795 9.36515C12.2725 9.65468 12.4029 9.9813 12.4623 10.3241C12.5218 10.6669 12.5091 11.0184 12.425 11.356L11.872 13.574C11.8004 13.8612 11.6454 14.1208 11.4265 14.3201C11.2076 14.5194 10.9347 14.6495 10.642 14.694L8.742 14.984C8.134 15.075 7.569 14.787 7.22 14.366C6.923 14.008 6.463 13.548 5.871 13.23L5.828 13.204L3.368 11.541C3.22928 11.447 3.12226 11.3132 3.06104 11.1572C2.99982 11.0012 2.98725 10.8303 3.025 10.667C3.08787 10.3943 3.21287 10.1398 3.39027 9.92339C3.56767 9.70695 3.79266 9.53441 4.0477 9.41923C4.30275 9.30405 4.58095 9.24934 4.86061 9.25936C5.14028 9.26938 5.41385 9.34386 5.66 9.477L6 9.662V6.5Z" fill="#F80D8E"/>
</svg>
