<svg width="24" height="24" viewBox="0 0 24 24" fill="none" xmlns="http://www.w3.org/2000/svg">
<path d="M7 17V7C7 6.71667 7.096 6.47934 7.288 6.288C7.48 6.09667 7.71733 6.00067 8 6C8.28267 5.99934 8.52033 6.09534 8.713 6.288C8.90567 6.48067 9.00133 6.718 9 7V17C9 17.2833 8.904 17.521 8.712 17.713C8.52 17.905 8.28267 18.0007 8 18C7.71733 17.9993 7.48 17.9033 7.288 17.712C7.096 17.5207 7 17.2833 7 17ZM11 21V3C11 2.71667 11.096 2.47934 11.288 2.288C11.48 2.09667 11.7173 2.00067 12 2C12.2827 1.99934 12.5203 2.09534 12.713 2.288C12.9057 2.48067 13.0013 2.718 13 3V21C13 21.2833 12.904 21.521 12.712 21.713C12.52 21.905 12.2827 22.0007 12 22C11.7173 21.9993 11.48 21.9033 11.288 21.712C11.096 21.5207 11 21.2833 11 21ZM3 13V11C3 10.7167 3.096 10.4793 3.288 10.288C3.48 10.0967 3.71733 10.0007 4 10C4.28267 9.99934 4.52033 10.0953 4.713 10.288C4.90567 10.4807 5.00133 10.718 5 11V13C5 13.2833 4.904 13.521 4.712 13.713C4.52 13.905 4.28267 14.0007 4 14C3.71733 13.9993 3.48 13.9033 3.288 13.712C3.096 13.5207 3 13.2833 3 13ZM15 17V7C15 6.71667 15.096 6.47934 15.288 6.288C15.48 6.09667 15.7173 6.00067 16 6C16.2827 5.99934 16.5203 6.09534 16.713 6.288C16.9057 6.48067 17.0013 6.718 17 7V17C17 17.2833 16.904 17.521 16.712 17.713C16.52 17.905 16.2827 18.0007 16 18C15.7173 17.9993 15.48 17.9033 15.288 17.712C15.096 17.5207 15 17.2833 15 17ZM19 13V11C19 10.7167 19.096 10.4793 19.288 10.288C19.48 10.0967 19.7173 10.0007 20 10C20.2827 9.99934 20.5203 10.0953 20.713 10.288C20.9057 10.4807 21.0013 10.718 21 11V13C21 13.2833 20.904 13.521 20.712 13.713C20.52 13.905 20.2827 14.0007 20 14C19.7173 13.9993 19.48 13.9033 19.288 13.712C19.096 13.5207 19 13.2833 19 13Z" fill="#F80D8E"/>
</svg>
