<svg width="301" height="160" fill="none" xmlns="http://www.w3.org/2000/svg"><g clip-path="url(#a)">
<path d="M84.042 23.648a20.366 20.366 0 0 0 40.651 0c.029-.427.046-.855.046-1.285 0-.431-.017-.859-.046-1.282a20.365 20.365 0 0 0-40.65 0A22.01 22.01 0 0 0 84 22.363c0 .43.018.858.042 1.285z" fill="#EA307E"/>
<path d="M193.786 159.556a20.784 20.784 0 0 0 20.744-22.072A20.779 20.779 0 0 0 193.788 118a20.783 20.783 0 0 0-20.742 19.484c-.028.428-.046.855-.046 1.286 0 .43.018.858.046 1.285a20.782 20.782 0 0 0 20.74 19.501z" fill="#EA307E"/>
<path d="M60 23h180c32.574 0 59 26.904 59 59.5 0 32.596-26.426 59.5-59 59.5H60c-32.574 0-59-26.904-59-59.5C1 49.904 27.426 23 60 23z" stroke="#EA307E" stroke-width="2"/></g><defs><clipPath id="a"><path fill="#fff" transform="rotate(90 149.88 150.25)" d="M0 0h159.185v300H0z"/></clipPath></defs></svg>