<svg xmlns="http://www.w3.org/2000/svg" viewBox="0 0 419.94 834"><defs><style>.cls-1{fill:#ea307e;}</style></defs><g id="Camada_2" data-name="Camada 2"><g id="Camada_1-2" data-name="Camada 1"><path class="cls-1" d="M209.15,112.52l154.51,153,56.28-56.28L209.93,0,2.32,205.32,0,207.61l53,58Zm.76-103,200.45,199.7L363.64,256,209.18,103,53.3,255.86l-43.91-48Z"/><path class="cls-1" d="M2.32,489.51,0,491.8l53,58L209.15,396.71l154.51,153,56.28-56.28-210-209.23Zm361.32,50.64L209.18,387.2,53.3,540.06,9.39,492l200.52-198.3,200.45,199.7Z"/><path class="cls-1" d="M2.32,773.71,0,776l53,58L209.15,680.91l154.51,153,56.28-56.27-210-209.24Zm361.32,50.64-154.46-153L53.3,824.25l-43.91-48L209.91,577.93,410.36,777.64Z"/></g></g></svg>