   <svg xmlns="http://www.w3.org/2000/svg" viewBox="0 0 869.37 862.22">
            <g data-name="Camada 2"><path d="M361.44 852.22c-46 0-91.92-.61-136.88-1.21-69.13-.92-140.62-1.88-210.9-.58l-3.44.06.07-3.44C11.83 775.33 24.13 698.88 45.87 626a857.54 857.54 0 0 1 200.47-346.82 842.06 842.06 0 0 1 189-149.37 885 885 0 0 1 184.5-80.17C697.24 25.93 781.11 12 856 10.3l3.38-.08v421.16l-3.53-.25c-31.54-2.21-195-6.6-315.38 124C435 669.54 436.06 808.26 438.91 848.05l.25 3.48-3.49.06c-24.67.46-49.44.63-74.23.63zm-273.67-9c46 0 91.93.62 136.88 1.22 68 .91 138.27 1.85 207.44.64-2.66-44.55-.92-181.17 103.51-294.42 118.48-128.5 277.9-128.48 317.16-126.31V17c-88.57 2.46-376.94 29.66-601.62 266.72C48.37 497.67 19.64 744.1 17 843.75c23.5-.4 47.14-.57 70.77-.57z" style="fill:#ea307e;stroke:#ea307e;stroke-miterlimit:10;stroke-width:20px" data-name="Camada 1"/></g>
          </svg>