<svg width="55" height="64" viewBox="0 0 55 64" fill="none" xmlns="http://www.w3.org/2000/svg">
<path d="M46.5441 0.0182428C48.7954 0.0182428 51.0467 0.0174384 53.298 0.0193154C53.5476 0.0193154 53.7975 0.0316497 54.0469 0.0431796C54.0718 0.0442521 54.0978 0.0785737 54.1187 0.101633C54.1783 0.166791 54.1729 0.228462 54.1204 0.294424C54.0539 0.377815 54.0013 0.473003 53.9319 0.553712C53.4194 1.14924 52.9215 1.75845 52.3874 2.33387C49.665 5.26595 46.9225 8.17926 44.2076 11.1186C42.0987 13.4018 40.029 15.7214 37.926 18.0102C35.4848 20.6675 33.0169 23.2998 30.579 25.96C28.8895 27.8037 27.2313 29.6763 25.5595 31.5364C25.5117 31.5895 25.4637 31.6429 25.4216 31.7005C25.2082 31.9922 25.0833 32.1279 25.457 32.535C25.6262 32.7192 25.7978 32.901 25.9673 33.0849C29.5008 36.9214 33.0614 40.7335 36.5603 44.6011C40.2518 48.6816 44.0188 52.6911 47.7451 56.7389C48.6404 57.7114 49.5164 58.7016 50.4093 59.6766C51.1092 60.4405 51.8155 61.1983 52.5303 61.948C52.9993 62.44 53.4602 62.9366 53.8385 63.504C53.9664 63.6957 54.008 63.8568 53.9305 63.8845C53.8356 63.9182 53.7361 63.9574 53.638 63.959C53.1379 63.9676 52.6376 63.966 52.1372 63.966C49.4213 63.9662 46.7053 63.9622 43.9896 63.9676C42.4891 63.9705 40.9889 63.9893 39.4884 63.9998C39.2382 64.0016 38.988 63.9914 38.7381 63.9982C38.1962 64.0126 37.7814 63.7753 37.4312 63.3796C32.8367 58.1898 28.0089 53.2137 23.3817 48.0537C21.0446 45.4476 18.6281 42.9127 16.2573 40.3364C14.6605 38.6013 13.0836 36.8477 11.4922 35.1077C10.7446 34.2907 9.98393 33.4858 9.22805 32.6763C9.10631 32.5459 8.97573 32.4237 8.85507 32.2923C8.67944 32.1008 8.67703 31.8866 8.84354 31.7236C8.91996 31.6488 8.99745 31.5745 9.0787 31.5045C10.1097 30.617 11.0704 29.6565 11.9644 28.6341C15.7044 24.3565 19.635 20.2545 23.49 16.0826C27.0297 12.2517 30.5393 8.3927 34.0664 4.54976C35.1775 3.33912 36.301 2.14001 37.4213 0.937685C37.5672 0.781093 37.7192 0.628791 37.8809 0.488287C38.2432 0.173762 38.6558 -0.00991155 39.1489 0.000545797C39.7919 0.0144889 40.4352 0.0160977 41.0784 0.016634C42.901 0.018511 44.7232 0.0174384 46.5458 0.0174384C46.5458 0.0177066 46.5458 0.0182428 46.5458 0.018511L46.5441 0.0182428Z" fill="#FAFAFA"/>
<path d="M0.000589902 31.9708C0.000589902 24.4729 5.36275e-05 16.975 0.00139431 9.47706C0.00139431 9.12043 0.0131923 8.76354 0.0249904 8.40719C0.0292806 8.27553 0.166299 8.15085 0.310288 8.14254C0.523725 8.1302 0.737431 8.1176 0.951136 8.1176C5.45048 8.11626 9.94982 8.11546 14.4489 8.11894C14.6966 8.11894 14.9452 8.14656 15.1911 8.179C15.2461 8.18624 15.305 8.25998 15.3375 8.31709C15.3705 8.37528 15.3831 8.45036 15.3866 8.519C15.3957 8.69704 15.3976 8.87562 15.3976 9.0542C15.3981 12.3392 15.3815 15.6238 15.4075 18.9085C15.4155 19.9384 15.0774 20.7761 14.3743 21.5113C12.2772 23.7049 10.1944 25.912 8.10691 28.1147C7.07539 29.2031 6.04628 30.2936 5.01609 31.383C4.89355 31.5128 4.76887 31.6407 4.64848 31.7724C4.54417 31.8866 4.53506 32.0531 4.62971 32.1596C4.79542 32.3462 4.96247 32.5317 5.13407 32.713C8.15356 35.9017 11.1741 39.0896 14.1944 42.2775C14.2926 42.3812 14.3945 42.4812 14.4913 42.5863C15.0964 43.2444 15.4094 44.0059 15.4032 44.9146C15.3876 47.1996 15.3984 49.4847 15.3984 51.7698C15.3984 52.841 15.4002 53.9119 15.3968 54.9831C15.3959 55.1963 15.3753 55.4092 15.3632 55.6221C15.356 55.7529 15.2463 55.8221 15.1554 55.8363C14.9104 55.8747 14.6596 55.8905 14.4111 55.8913C12.9114 55.8959 11.4114 55.8935 9.91174 55.8937C7.23359 55.8937 4.55543 55.8961 1.87728 55.8916C1.37774 55.8908 0.877934 55.8696 0.379199 55.8438C0.0587757 55.8275 0.0236497 55.6966 0.0115835 55.4285C-0.0045047 55.0721 0.000858039 54.7147 0.000858039 54.3578C0.000321765 46.8956 0.000589902 39.4333 0.000589902 31.9711V31.9708Z" fill="#F80D8E"/>
</svg>
