<svg width="24" height="24" viewBox="0 0 24 24" fill="none" xmlns="http://www.w3.org/2000/svg">
<path d="M17.252 12.49C16.968 14.855 15.419 15.8 14.75 16.486C14.08 17.174 14.2 17.311 14.245 18.32C14.2525 18.4448 14.2344 18.5699 14.1917 18.6874C14.1491 18.805 14.0828 18.9126 13.997 19.0036C13.9111 19.0945 13.8076 19.167 13.6927 19.2164C13.5779 19.2658 13.4541 19.2912 13.329 19.291H10.671C10.546 19.2908 10.4224 19.2651 10.3077 19.2155C10.193 19.166 10.0895 19.0935 10.0037 19.0027C9.91791 18.9118 9.85151 18.8044 9.80858 18.687C9.76565 18.5697 9.74708 18.4448 9.75401 18.32C9.75401 17.33 9.84601 17.1 9.25001 16.486C8.49001 15.726 6.70201 14.653 6.70201 11.702C6.69744 10.969 6.84478 10.243 7.13472 9.56976C7.42466 8.89653 7.85093 8.29066 8.38665 7.79034C8.92238 7.29003 9.55593 6.90612 10.2474 6.66282C10.9389 6.41951 11.6732 6.32209 12.4042 6.37669C13.1352 6.43129 13.8469 6.63672 14.4946 6.98005C15.1422 7.32337 15.7117 7.79714 16.1671 8.37148C16.6226 8.94583 16.9541 9.6083 17.1408 10.3171C17.3276 11.026 17.3654 11.7658 17.252 12.49Z" stroke="#FAFAFA" stroke-width="1.5" stroke-linecap="round" stroke-linejoin="round"/>
<path d="M10.46 19.236V20.748C10.46 21.161 10.69 21.5 10.973 21.5H13.026C13.311 21.5 13.54 21.16 13.54 20.748V19.236M11.22 8.696C10.6295 8.69626 10.0634 8.93101 9.64593 9.34863C9.2285 9.76624 8.99401 10.3325 8.99401 10.923M19.332 11.904H21.166M17.486 5.892L18.787 4.591M18.486 17L19.787 18.3M12 2.377V3.86M5.24001 4.59L6.53201 5.892M4.24001 18.3L5.53201 17M4.66801 11.904H2.83501" stroke="#FAFAFA" stroke-width="1.5" stroke-linecap="round" stroke-linejoin="round"/>
</svg>
