<?xml version="1.0" encoding="utf-8"?>
<!-- Generator: Adobe Illustrator 24.1.0, SVG Export Plug-In . SVG Version: 6.00 Build 0)  -->
<svg version="1.1" id="Layer_1" xmlns="http://www.w3.org/2000/svg" xmlns:xlink="http://www.w3.org/1999/xlink" x="0px" y="0px"
	 viewBox="0 0 272.4 72" style="enable-background:new 0 0 272.4 72;" xml:space="preserve">
<style type="text/css">
	.st0{clip-path:url(#SVGID_2_);}
	.st1{fill:#FAFAFA;}
	.st2{fill:#F80D8E;}
</style>
<g>
	<defs>
		<rect id="SVGID_1_" x="-27.6" y="0" width="300" height="71.6"/>
	</defs>
	<clipPath id="SVGID_2_">
		<use xlink:href="#SVGID_1_"  style="overflow:visible;"/>
	</clipPath>
	<g class="st0">
		<path class="st1" d="M34.2,14.3c1.7,0,3.3,0,5,0c0.2,0,0.4,0,0.5,0c0,0,0,0,0.1,0c0,0,0,0.1,0,0.1c0,0.1-0.1,0.1-0.1,0.2
			c-0.4,0.4-0.7,0.9-1.1,1.3c-2,2.2-4,4.3-6,6.5c-1.5,1.7-3.1,3.4-4.6,5.1c-1.8,2-3.6,3.9-5.4,5.8c-1.2,1.4-2.5,2.7-3.7,4.1
			c0,0-0.1,0.1-0.1,0.1c-0.2,0.2-0.2,0.3,0,0.6c0.1,0.1,0.3,0.3,0.4,0.4c2.6,2.8,5.2,5.6,7.8,8.5c2.7,3,5.5,5.9,8.2,8.9
			c0.7,0.7,1.3,1.4,2,2.2c0.5,0.6,1,1.1,1.6,1.7c0.3,0.4,0.7,0.7,1,1.1c0.1,0.1,0.1,0.3,0.1,0.3c-0.1,0-0.1,0.1-0.2,0.1
			c-0.4,0-0.7,0-1.1,0c-2,0-4,0-6,0c-1.1,0-2.2,0-3.3,0c-0.2,0-0.4,0-0.6,0c-0.4,0-0.7-0.2-1-0.5c-3.4-3.8-6.9-7.5-10.3-11.3
			c-1.7-1.9-3.5-3.8-5.2-5.7c-1.2-1.3-2.3-2.6-3.5-3.8c-0.5-0.6-1.1-1.2-1.7-1.8c-0.1-0.1-0.2-0.2-0.3-0.3c-0.1-0.1-0.1-0.3,0-0.4
			c0.1-0.1,0.1-0.1,0.2-0.2c0.8-0.7,1.5-1.4,2.1-2.1c2.7-3.1,5.6-6.2,8.5-9.2c2.6-2.8,5.2-5.6,7.8-8.5c0.8-0.9,1.6-1.8,2.5-2.7
			c0.1-0.1,0.2-0.2,0.3-0.3c0.3-0.2,0.6-0.4,0.9-0.4c0.5,0,0.9,0,1.4,0C31.5,14.3,32.8,14.3,34.2,14.3
			C34.2,14.3,34.2,14.3,34.2,14.3L34.2,14.3z"/>
		<path class="st2" d="M0,37.7c0-5.5,0-11,0-16.5c0-0.3,0-0.5,0-0.8c0-0.1,0.1-0.2,0.2-0.2c0.2,0,0.3,0,0.5,0c3.3,0,6.6,0,9.9,0
			c0.2,0,0.4,0,0.5,0c0,0,0.1,0.1,0.1,0.1c0,0,0,0.1,0,0.1c0,0.1,0,0.3,0,0.4c0,2.4,0,4.8,0,7.2c0,0.8-0.2,1.4-0.8,1.9
			C9,31.7,7.5,33.3,6,34.9c-0.8,0.8-1.5,1.6-2.3,2.4c-0.1,0.1-0.2,0.2-0.3,0.3c-0.1,0.1-0.1,0.2,0,0.3c0.1,0.1,0.2,0.3,0.4,0.4
			c2.2,2.3,4.4,4.7,6.7,7c0.1,0.1,0.1,0.1,0.2,0.2c0.4,0.5,0.7,1,0.7,1.7c0,1.7,0,3.4,0,5c0,0.8,0,1.6,0,2.4c0,0.2,0,0.3,0,0.5
			c0,0.1-0.1,0.1-0.2,0.2c-0.2,0-0.4,0-0.5,0c-1.1,0-2.2,0-3.3,0c-2,0-3.9,0-5.9,0c-0.4,0-0.7,0-1.1,0C0,55.2,0,55.2,0,55
			c0-0.3,0-0.5,0-0.8C0,48.7,0,43.2,0,37.7L0,37.7z"/>
		<path class="st1" d="M169,36.1c0.2,0.4,0.4,0.7,0.6,1.1c1.7,2.8,3.4,5.6,5.1,8.4c0.1,0.2,0.2,0.3,0.3,0.5c0,0,0,0.2-0.1,0.2
			c-0.1,0-0.1,0.1-0.2,0.1c-1.4,0-2.9,0-4.3,0c-0.2,0-0.4-0.1-0.5-0.3c-0.1-0.2-0.2-0.4-0.4-0.6c-1-1.8-2-3.5-3.1-5.3
			c-0.2-0.3-0.3-0.6-0.5-0.8c-0.1-0.2-0.3-0.3-0.5,0c-0.5,0.6-1,1.2-1.4,1.8c0,0,0,0.1-0.1,0.1c-0.2,0.2-0.2,0.4-0.2,0.7
			c0,0.9,0,1.8,0,2.8c0,0.4,0,0.9,0,1.3c0,0.3-0.2,0.4-0.5,0.4c-1.2,0-2.5,0-3.7,0c-0.2,0-0.3-0.1-0.4-0.4c0-0.2,0-0.5,0-0.7
			c0-5,0-10.1,0-15.1c0-0.3,0-0.6,0-0.8c0-0.1,0.1-0.2,0.2-0.3c0,0,0.1,0,0.1,0c1.3,0,2.6,0,3.8,0c0.2,0,0.3,0.1,0.3,0.3
			c0,0.3,0,0.6,0,0.8c0,1.7,0,3.4,0,5c0,0.3,0,0.6,0,1c0,0.1,0.1,0.2,0.1,0.1c0,0,0.1,0,0.1,0c0.2-0.2,0.3-0.4,0.5-0.5
			c1.6-2,3.2-3.9,4.7-5.9c0.2-0.2,0.4-0.4,0.5-0.6c0.1-0.1,0.2-0.2,0.3-0.2c1.5,0,3,0,4.6,0c0,0,0.1,0,0.1,0.1
			c0.1,0.1,0.1,0.1,0,0.2c-0.2,0.3-0.4,0.6-0.7,0.8c-1.4,1.7-2.9,3.4-4.3,5.2C169.4,35.6,169.2,35.9,169,36.1L169,36.1z"/>
		<path class="st1" d="M242.7,37.5c0-2.6,0-5.2,0-7.8c0-0.3,0-0.6,0-0.8c0-0.1,0.1-0.2,0.2-0.2c0.1,0,0.3,0,0.5,0
			c3.8,0,7.5,0,11.3,0c0.1,0,0.2,0,0.4,0c0.2,0,0.3,0.1,0.3,0.3c0,1,0,1.9,0,2.9c0,0.2-0.2,0.3-0.3,0.3c-0.4,0-0.7,0-1.1,0
			c-2.1,0-4.2,0-6.3,0c-0.2,0-0.5,0-0.7,0.1c-0.1,0-0.1,0.1-0.2,0.2c0,0,0,0.1,0,0.1c0,1,0,1.9,0,2.9c0,0.2,0.1,0.3,0.3,0.3
			c0.4,0,0.7,0,1.1,0c1.9,0,3.8,0,5.6,0c0.2,0,0.5,0,0.7,0.1c0.1,0,0.1,0.1,0.2,0.2c0,0,0,0.1,0,0.1c0,0.9,0,1.8,0,2.8
			c0,0.2-0.2,0.3-0.3,0.3c-0.3,0-0.6,0-1,0c-1.9,0-3.8,0-5.8,0c-0.2,0-0.5,0-0.7,0.1c-0.1,0-0.1,0.1-0.1,0.2c0,1.2,0,2.3,0,3.5
			c0,0.1,0.1,0.2,0.2,0.2c0.3,0,0.6,0,1,0c2.2,0,4.5,0,6.7,0c0.2,0,0.5,0,0.7,0.1c0.1,0,0.1,0.1,0.2,0.2c0,0,0,0.1,0,0.1
			c0,0.9,0,1.8,0,2.8c0,0.2-0.1,0.3-0.3,0.3c-0.2,0-0.3,0-0.5,0c-3.8,0-7.6,0-11.4,0c-0.2,0-0.3,0-0.5,0c-0.1,0-0.2-0.1-0.2-0.2
			c0-0.3,0-0.6,0-1C242.7,42.6,242.7,40,242.7,37.5L242.7,37.5z"/>
		<path class="st1" d="M202.6,28.6c2.1,0,4.2,0,6.4,0c0.3,0,0.6,0,0.8,0c0.1,0,0.3,0.2,0.3,0.3c0,1,0,1.9,0,2.9
			c0,0.2-0.1,0.3-0.3,0.3c-1,0-1.9,0-2.9,0c-0.7,0-1.4,0-2,0c-0.1,0-0.3,0.2-0.3,0.3c0,0.4,0,0.7,0,1.1c0,3.8,0,7.7,0,11.5
			c0,0.4,0,0.7,0,1.1c0,0.1-0.2,0.2-0.2,0.2c-0.3,0-0.6,0-0.8,0c-0.9,0-1.8,0-2.6,0c-0.1,0-0.3-0.2-0.3-0.3c0-0.4,0-0.7,0-1.1
			c0-3.8,0-7.7,0-11.5c0-0.4,0-0.7,0-1.1c0-0.1-0.1-0.3-0.2-0.3c-0.2,0-0.4,0-0.6,0c-1.2,0-2.4,0-3.6,0c-0.2,0-0.5,0-0.7,0
			c-0.2,0-0.4-0.1-0.4-0.3c0,0,0-0.1,0-0.1c0-0.9,0-1.8,0-2.6c0-0.3,0.2-0.4,0.5-0.4c0.3,0,0.6,0,1,0
			C198.4,28.6,200.5,28.6,202.6,28.6L202.6,28.6z"/>
		<path class="st1" d="M218.8,28.6c2.2,0,4.4,0,6.6,0c0.2,0,0.5,0,0.7,0c0.1,0,0.2,0.1,0.2,0.2c0,0.5,0.1,1,0,1.4
			c0,0.6,0.2,1.2-0.2,1.7c-0.5,0.2-1.1,0.1-1.7,0.1c-1.1,0-2.2,0-3.4,0c-0.2,0-0.4,0.1-0.4,0.4c0,0.1,0,0.2,0,0.4c0,0.3,0,0.6,0,1
			c0,3.8,0,7.6,0,11.4c0,0.2,0,0.5,0,0.7c0,0.3-0.1,0.5-0.4,0.5c-0.4,0-0.7,0-1.1,0c-0.8,0-1.5,0-2.3,0c-0.1,0-0.2-0.2-0.2-0.2
			c0-0.1,0-0.2,0-0.2c0-0.4,0-0.7,0-1.1c0-3.8,0-7.7,0-11.5c0-0.3,0-0.6,0-0.8c0-0.2-0.1-0.3-0.4-0.3c-0.5,0-1,0-1.4,0
			c-1.1,0-2.2,0-3.4,0c-0.2,0-0.4-0.2-0.4-0.4c0-0.1,0-0.2,0-0.2c0-0.2,0-0.3,0-0.5c0-2.2,0-2.3,0.2-2.3c0.7-0.2,1.5-0.1,2.3-0.1
			C215.3,28.6,217.1,28.6,218.8,28.6L218.8,28.6z"/>
		<path class="st1" d="M228.5,37.6c0-2.6,0-5.3,0-7.9c0-0.3,0-0.6,0-0.8c0-0.1,0.1-0.1,0.2-0.2c0,0,0.1,0,0.1,0c1.1,0,2.2,0,3.4,0
			c0.2,0,0.4,0.2,0.4,0.4c0,0.4,0,0.7,0,1.1c0,3.8,0,7.7,0,11.5c0,0.4,0,0.7,0,1.1c0,0.1,0.1,0.2,0.2,0.2c0.3,0,0.6,0,0.8,0
			c2,0,3.9,0,5.9,0c0.2,0,0.5,0,0.7,0c0.1,0,0.1,0.1,0.2,0.2c0,0.1,0,0.2,0,0.3c0.1,2.1,0,2.8-0.1,2.8c-0.9,0.2-1.8,0.1-2.7,0.1
			c-2.7,0-5.4,0-8.1,0c-0.2,0-0.5,0-0.7-0.1c-0.1,0-0.1-0.1-0.2-0.2c0-0.2,0-0.5,0-0.7C228.5,42.8,228.5,40.2,228.5,37.6L228.5,37.6
			z"/>
		<path class="st1" d="M78.2,37.3c1,0,2.1,0,3.1,0c0.2,0,0.5,0,0.7,0c0.1,0,0.3,0.2,0.3,0.3c0.1,1.5-0.2,3-0.8,4.4
			c-1.2,2.6-3.2,4.1-6.1,4.5c-1.2,0.2-2.3,0.1-3.5-0.2c-2.9-0.7-4.8-2.5-6-5.2c-0.9-2.2-0.9-5.4,0.3-7.7c1.4-2.6,3.5-4.2,6.5-4.6
			c2.1-0.3,4.1,0,5.9,1.1c0.8,0.5,1.5,1.1,2.1,1.8c0.1,0.1,0.1,0.3,0,0.4c-0.3,0.3-0.6,0.6-0.9,0.9c-0.1,0.1-0.2,0.1-0.3,0
			c-0.1-0.1-0.3-0.3-0.4-0.4c-1-1.1-2.4-1.7-3.9-2c-1-0.1-1.9-0.1-2.9,0.1c-2.1,0.5-3.6,1.8-4.4,3.7c-0.9,2-0.9,4.1-0.1,6.2
			c0.7,1.8,2.1,3.1,3.9,3.8c1.6,0.5,3.1,0.5,4.7-0.1c1.4-0.5,2.5-1.5,3.1-2.8c0.3-0.7,0.5-1.4,0.6-2.2c0-0.2-0.1-0.4-0.3-0.4
			c-0.3,0-0.6,0-1,0c-1.4,0-2.9,0-4.3,0c-0.2,0-0.4,0-0.6-0.1c-0.1,0-0.1-0.1-0.2-0.2c-0.1-0.4-0.1-0.9,0-1.3c0-0.1,0.1-0.1,0.2-0.1
			c0.2,0,0.4-0.1,0.6-0.1C75.8,37.3,77,37.3,78.2,37.3L78.2,37.3z"/>
		<path class="st1" d="M113.9,37.7c0,2.5,0,5,0,7.4c0,0.3,0,0.6,0,1c0,0.1-0.2,0.2-0.2,0.2c-0.1,0-0.2,0-0.4,0
			c-0.5,0.1-0.9-0.1-1.2-0.6c-2.8-3.9-5.7-7.8-8.6-11.7c-0.3-0.4-0.5-0.7-0.8-1c0,0-0.1-0.1-0.1,0c-0.1,0-0.2,0.1-0.2,0.1
			c0,0.4,0,0.7,0,1.1c0,3.6,0,7.2,0,10.8c0,0.4,0,0.7,0,1.1c0,0.1-0.2,0.2-0.2,0.2c-0.4,0-0.9,0-1.3,0c-0.1,0-0.3-0.2-0.3-0.3
			c0-0.2,0-0.5,0-0.7c0-5.1,0-10.2,0-15.2c0-0.3,0-0.6,0.1-0.8c0-0.1,0.1-0.1,0.1-0.2c0.4-0.1,0.7-0.1,1.1,0c0.1,0,0.2,0.1,0.2,0.1
			c0.2,0.2,0.3,0.4,0.5,0.7c2.8,3.8,5.6,7.7,8.5,11.5c0.2,0.3,0.4,0.6,0.6,0.9c0.1,0.2,0.2,0.2,0.3,0.1c0.1-0.1,0.1-0.2,0.1-0.3
			c0-0.4,0-0.7,0-1.1c0-3.4,0-6.8,0-10.2c0-0.2,0-0.4,0-0.6c0-1.2-0.1-1.1,1.2-1.1c0.2,0,0.3,0,0.5,0c0.1,0,0.2,0.1,0.2,0.2
			c0,0.2,0,0.5,0,0.7c0,2.3,0,4.6,0,6.8C113.9,37.1,113.9,37.4,113.9,37.7L113.9,37.7z"/>
		<path class="st1" d="M85.7,37.7c0-2.4,0-4.8,0-7.2c0-0.4,0-0.7,0-1.1c0-0.2,0.2-0.3,0.4-0.4c0.2,0,0.3,0,0.5,0c3.2,0,6.3,0,9.5,0
			c0.2,0,0.5,0,0.7,0c0.1,0,0.2,0.1,0.2,0.2c0,0.4,0,0.8,0,1.2c0,0.1-0.1,0.2-0.2,0.2c-0.3,0-0.6,0-1,0c-2.4,0-4.9,0-7.3,0
			c-0.2,0-0.5,0-0.7,0.1c-0.1,0-0.1,0.1-0.2,0.2c0,0.1-0.1,0.2-0.1,0.2c0,1.7,0,3.4,0,5c0,0.3,0.2,0.5,0.4,0.5c0.3,0,0.6,0,1,0
			c2.1,0,4.2,0,6.3,0c0.3,0,0.6,0,0.8,0c0.1,0,0.2,0.1,0.2,0.1c0.1,0.4,0.1,0.9,0,1.3c0,0.1-0.1,0.1-0.2,0.1c-0.3,0-0.6,0-0.8,0
			c-2.2,0-4.3,0-6.5,0c-0.3,0-0.6,0-1,0c-0.1,0-0.2,0.1-0.3,0.2c0,0.1,0,0.2,0,0.2c0,1.8,0,3.6,0,5.4c0,0.1,0,0.2,0,0.2
			c0,0.1,0.1,0.1,0.2,0.2c0.2,0,0.5,0.1,0.7,0.1c2.5,0,5,0,7.5,0c0.3,0,0.6,0,0.8,0c0.1,0,0.2,0.1,0.2,0.2c0,0.2,0,0.3,0,0.5
			c0,1,0,1-1,1c-3.2,0-6.3,0-9.5,0c-0.2,0-0.5,0-0.7,0c-0.1,0-0.3-0.2-0.3-0.3c0-0.4,0-0.7,0-1.1C85.7,42.5,85.7,40.1,85.7,37.7
			L85.7,37.7z"/>
		<path class="st1" d="M126.2,28.8c2.2,0,4.1,0.7,5.7,2.2c0.1,0.1,0.2,0.2,0.3,0.2c0.1,0.1,0.1,0.3,0,0.4c-0.3,0.3-0.5,0.5-0.8,0.8
			c-0.3,0.3-0.4,0.3-0.7,0c-0.8-0.8-1.7-1.3-2.8-1.6c-1.6-0.4-3.3-0.3-4.8,0.4c-1.6,0.8-2.7,2-3.3,3.6c-0.8,2.1-0.7,4.2,0.2,6.2
			c1.2,2.5,3.2,3.7,5.9,3.8c1.9,0.1,3.5-0.5,4.9-1.8c0.1-0.1,0.2-0.2,0.3-0.2c0.1,0,0.2,0,0.2,0c0.3,0.3,0.7,0.7,1,1
			c0.1,0.1,0.1,0.2,0,0.3c-0.8,0.9-1.8,1.5-2.9,1.9c-2.2,0.8-4.5,0.9-6.7,0c-2.6-1-4.2-3-5-5.6c-0.6-2.1-0.6-4.2,0.2-6.2
			C119.3,30.9,122.5,28.7,126.2,28.8L126.2,28.8z"/>
		<path class="st1" d="M148.5,32.3c-0.2,0.2-0.3,0.5-0.4,0.8c-1.6,4-3.2,7.9-4.8,11.9c-0.1,0.4-0.3,0.7-0.5,1.1
			c-0.1,0.2-0.2,0.2-0.4,0.2c-0.4,0-0.9,0-1.3,0c-0.2,0-0.3-0.2-0.2-0.4c0.1-0.3,0.2-0.5,0.3-0.8c2.1-5.1,4.1-10.1,6.2-15.2
			c0.1-0.2,0.2-0.4,0.2-0.6c0.1-0.3,0.3-0.4,0.5-0.4c0.2,0,0.5,0,0.7,0c0.2,0,0.4,0.1,0.5,0.3c0.1,0.3,0.3,0.6,0.4,0.9
			c1.9,4.8,3.9,9.6,5.8,14.4c0,0.1,0.1,0.2,0.1,0.3c0.7,1.6,0.7,1.4-1,1.4c-0.1,0-0.2,0-0.2,0c-0.1-0.1-0.2-0.1-0.3-0.2
			c-0.1-0.2-0.2-0.4-0.3-0.7c-1.6-4-3.2-8-4.8-12C148.9,33.1,148.9,32.7,148.5,32.3L148.5,32.3z"/>
		<path class="st1" d="M63.4,46.4c-0.2,0-0.4,0-0.6,0c-0.2,0-0.4-0.1-0.5-0.3c-0.1-0.2-0.2-0.4-0.3-0.7c-1.6-4-3.2-8-4.8-12
			c-0.1-0.3-0.3-0.7-0.4-1c0,0-0.1-0.1-0.1-0.1c-0.1,0-0.1,0-0.2,0.1c-0.6,1.4-1.1,2.8-1.7,4.2c-1.2,3-2.4,5.9-3.6,8.9
			c-0.4,0.9-0.2,0.9-1.3,0.9c-0.2,0-0.5,0-0.7,0c-0.1,0-0.2-0.2-0.2-0.3c0.1-0.3,0.2-0.6,0.3-0.9c1.9-4.8,3.9-9.5,5.8-14.3
			c0.1-0.3,0.2-0.6,0.4-0.9c0.2-0.3,0.1-0.8,0.5-0.9c0.4-0.1,0.8-0.1,1.2,0c0.1,0,0.1,0.1,0.2,0.1c0.1,0.2,0.2,0.4,0.3,0.7
			c2.1,5.2,4.3,10.5,6.4,15.7c0.1,0.1,0.1,0.3,0.2,0.4c0.1,0.2-0.1,0.3-0.2,0.3C63.8,46.4,63.6,46.4,63.4,46.4
			C63.4,46.4,63.4,46.4,63.4,46.4L63.4,46.4z"/>
		<path class="st1" d="M137.6,37.7c0,2.5,0,4.9,0,7.4c0,0.3,0,0.6,0,1c0,0.2-0.1,0.3-0.3,0.3c-0.4,0-0.8,0-1.2,0
			c-0.3,0-0.4-0.2-0.4-0.5c0-0.2,0-0.5,0-0.7c0-5,0-10,0-15c0-0.3,0-0.6,0-0.8c0-0.2,0.1-0.3,0.3-0.3c0.1,0,0.2,0,0.2,0
			c1.5,0,1.4-0.2,1.4,1.3C137.6,32.8,137.6,35.2,137.6,37.7z"/>
		<path class="st1" d="M93.5,27.7c-0.3,0-0.6-0.1-0.8-0.4c-0.4-0.6-0.9-1.1-1.3-1.7c-0.1-0.2-0.3-0.1-0.4,0
			c-0.4,0.6-0.9,1.1-1.3,1.7c-0.3,0.4-0.6,0.4-1.1,0.3c-0.1,0-0.2-0.2-0.1-0.3c0.7-0.9,1.4-1.8,2.1-2.7c0.1-0.1,0.2-0.1,0.3-0.2
			c0.4-0.1,0.8,0,1,0.4c0.6,0.8,1.3,1.6,1.9,2.4c0,0.1,0.1,0.2,0.1,0.2c0,0.1-0.2,0.2-0.3,0.2C93.6,27.7,93.5,27.7,93.5,27.7
			L93.5,27.7z"/>
		<path class="st1" d="M194.5,36.3c-0.4-3.2-2.1-5.5-5-7c-2.5-1.3-6-1.3-8.5-0.1c-2,0.9-3.4,2.3-4.3,4.3c-0.8,1.7-1,3.4-0.8,5.2
			c0.3,2.6,1.5,4.6,3.5,6.2c1.7,1.3,3.7,1.9,6,1.9c0.4,0,0.9-0.1,1.5-0.1c2.6-0.3,5.8-2.2,7.1-5.7C194.6,39.4,194.7,37.8,194.5,36.3
			L194.5,36.3z M190.1,39.8c-0.6,1.5-1.6,2.6-3.2,3c-1.3,0.4-2.6,0.3-3.9-0.2c-1.3-0.5-2.2-1.5-2.7-2.9c-0.3-0.8-0.4-1.6-0.4-2.4
			c0-0.6,0.1-1.4,0.3-2c0.6-1.7,1.8-2.8,3.6-3.2c0.8-0.2,1.7-0.2,2.5,0c2,0.4,3.3,1.6,3.9,3.5C190.7,37,190.6,38.4,190.1,39.8z"/>
		<path class="st1" d="M272.4,46.1c-0.2-0.2-0.3-0.5-0.5-0.7c-1.4-1.8-2.8-3.6-4.1-5.4c-0.2-0.2-0.3-0.4-0.5-0.7
			c-0.1-0.2-0.1-0.3,0.1-0.4c0.3-0.1,0.6-0.2,0.9-0.3c2.5-1.1,3.6-3.2,3.1-5.9c-0.3-1.4-1.1-2.5-2.3-3.2c-1-0.6-2.1-0.9-3.2-0.9
			c-2.4,0-4.8,0-7.2,0c-0.1,0-0.2,0-0.2,0c-0.1,0-0.2,0.1-0.2,0.2c0,0.3-0.1,0.6-0.1,0.8c0,2.6,0,5.2,0,7.8c0,2,0,3.9,0,5.9
			c0,0.7,0,1.4,0,2c0,1.2-0.1,1.1,1.1,1.1c0.7,0,1.4,0,2,0c0.8,0,0.9,0,0.9-0.9c0-1.8,0-3.7,0-5.5c0-0.2,0-0.5,0.1-0.7
			c0,0,0.1-0.1,0.2-0.1c0,0,0.1,0,0.1,0c0.2,0.2,0.4,0.4,0.5,0.6c1.3,1.8,2.7,3.7,4,5.5c0.2,0.3,0.4,0.5,0.6,0.8
			c0.1,0.2,0.3,0.3,0.5,0.3c1.3,0,2.6,0,4,0c0,0,0.1,0,0.1,0C272.4,46.3,272.4,46.2,272.4,46.1L272.4,46.1z M267.1,35.2
			c-0.3,0.4-0.8,0.7-1.3,0.8c-0.5,0.1-1,0.1-1.4,0.1c-0.2,0-0.3,0-0.5,0c0,0,0,0,0,0c-0.5,0-1,0-1.4-0.1c-0.1,0-0.1-0.1-0.2-0.2
			c0-0.1,0-0.2,0-0.2c0-1.1,0-2.2,0-3.4c0-0.1,0-0.2,0-0.2c0-0.1,0.2-0.3,0.3-0.3c0.9,0,1.8,0,2.8,0c0.3,0,0.6,0.1,0.9,0.2
			c0.7,0.3,1.1,0.8,1.2,1.5C267.5,34.1,267.5,34.7,267.1,35.2L267.1,35.2z"/>
	</g>
</g>
</svg>
