<svg xmlns="http://www.w3.org/2000/svg" width="300" height="300" viewBox="0 0 512 512" version="1.1" xmlns:xlink="http://www.w3.org/1999/xlink" xmlns:svgjs="http://svgjs.dev/svgjs"><g width="100%" height="100%" transform="matrix(1,0,0,1,0,0)"><path d="M503.15,108.43l.01-.01-48-96A8.011,8.011,0,0,0,448,8H64a8.011,8.011,0,0,0-7.16,4.42l-48,96,.01.01A7.9,7.9,0,0,0,8,112v44a28.031,28.031,0,0,0,28,28h8a27.9,27.9,0,0,0,20-8.43,28.117,28.117,0,0,0,8,5.72V328H32a8,8,0,0,0-8,8v32a8,8,0,0,0,8,8V496a8,8,0,0,0,8,8H472a8,8,0,0,0,8-8V376a8,8,0,0,0,8-8V336a8,8,0,0,0-8-8H440V181.29a28.117,28.117,0,0,0,8-5.72A27.9,27.9,0,0,0,468,184h8a28.031,28.031,0,0,0,28-28V112A7.9,7.9,0,0,0,503.15,108.43ZM56,156a12.01,12.01,0,0,1-12,12H36a12.01,12.01,0,0,1-12-12V120H56ZM464,488H48V376H464Zm8-144v16H40V344ZM92,168H84a12.01,12.01,0,0,1-12-12V120h32v36A12.01,12.01,0,0,1,92,168Zm12,13.29V328H88V184h4A27.75,27.75,0,0,0,104,181.29ZM132,184h8a27.9,27.9,0,0,0,20-8.43A27.9,27.9,0,0,0,180,184h8a27.9,27.9,0,0,0,20-8.43A27.9,27.9,0,0,0,228,184h8a27.9,27.9,0,0,0,20-8.43A27.9,27.9,0,0,0,276,184h8a27.9,27.9,0,0,0,20-8.43A27.9,27.9,0,0,0,324,184h8a27.9,27.9,0,0,0,20-8.43A27.9,27.9,0,0,0,372,184h8a27.75,27.75,0,0,0,12-2.71V328H120V181.29A27.75,27.75,0,0,0,132,184Zm-12-28V120h32v36a12.01,12.01,0,0,1-12,12h-8A12.01,12.01,0,0,1,120,156Zm48,0V120h32v36a12.01,12.01,0,0,1-12,12h-8A12.01,12.01,0,0,1,168,156Zm48,0V120h32v36a12.01,12.01,0,0,1-12,12h-8A12.01,12.01,0,0,1,216,156Zm48,0V120h32v36a12.01,12.01,0,0,1-12,12h-8A12.01,12.01,0,0,1,264,156Zm48,0V120h32v36a12.01,12.01,0,0,1-12,12h-8A12.01,12.01,0,0,1,312,156Zm48,0V120h32v36a12.01,12.01,0,0,1-12,12h-8A12.01,12.01,0,0,1,360,156Zm48,172V181.29A27.75,27.75,0,0,0,420,184h4V328Zm32-172a12.01,12.01,0,0,1-12,12h-8a12.01,12.01,0,0,1-12-12V120h32ZM28.94,104l40-80H443.06l40,80ZM488,156a12.01,12.01,0,0,1-12,12h-8a12.01,12.01,0,0,1-12-12V120h32Z" fill="#f80d8e" fill-opacity="1" data-original-color="#000000ff" stroke="none" stroke-opacity="1"/></g></svg>