<svg xmlns="http://www.w3.org/2000/svg" xmlns:xlink="http://www.w3.org/1999/xlink" version="1.1" id="Capa_1" x="0px" y="0px" viewBox="0 0 511.993 511.993" style="enable-background:new 0 0 511.993 511.993;" xml:space="preserve" width="300" height="300" xmlns:svgjs="http://svgjs.dev/svgjs"><g width="100%" height="100%" transform="matrix(1,0,0,1,0,0)"><g>
	
		<circle style="stroke-linecap: round; stroke-linejoin: round; stroke-miterlimit: 10;" cx="379.043" cy="119.215" r="22.002" fill="none" fill-opacity="1" stroke="#f80d8e" stroke-opacity="1" data-original-stroke-color="#000000ff" stroke-width="12" data-original-stroke-width="15"/>
	<g>
		<g>
			<path style="stroke-linecap: round; stroke-linejoin: round; stroke-miterlimit: 10;" d="&#10;&#9;&#9;&#9;&#9;M220.358,322.914l-28.603-63.793c-0.519-1.239,0.724-2.484,1.963-1.967l63.635,28.765" fill="none" fill-opacity="1" stroke="#f80d8e" stroke-opacity="1" data-original-stroke-color="#000000ff" stroke-width="12" data-original-stroke-width="15"/>
			
				<line style="stroke-linecap: round; stroke-linejoin: round; stroke-miterlimit: 10;" x1="214.34" y1="305.921" x2="240.449" y2="279.812" fill="none" fill-opacity="1" stroke="#f80d8e" stroke-opacity="1" data-original-stroke-color="#000000ff" stroke-width="12" data-original-stroke-width="15"/>
		</g>
		<g>
			<path style="stroke-linecap: round; stroke-linejoin: round; stroke-miterlimit: 10;" d="&#10;&#9;&#9;&#9;&#9;M276.823,266.449l-46.77-46.77l77.41,14.168c1.433,0.261,1.646-0.782,0.616-1.812l-45.717-44.841" fill="none" fill-opacity="1" stroke="#f80d8e" stroke-opacity="1" data-original-stroke-color="#000000ff" stroke-width="12" data-original-stroke-width="15"/>
		</g>
		<g>
			<path style="stroke-linecap: round; stroke-linejoin: round; stroke-miterlimit: 10;" d="&#10;&#9;&#9;&#9;&#9;M338.373,159.427c12.529,12.529,15.489,29.397,4.65,40.622c-3.608,3.736-13.063,13.263-13.063,13.263&#10;&#9;&#9;&#9;&#9;s-16.53-16.411-22.845-22.727c-5.187-5.187-22.719-22.653-22.719-22.653s8.539-8.539,12.879-12.879&#10;&#9;&#9;&#9;&#9;C309.375,142.954,325.844,146.898,338.373,159.427z" fill="none" fill-opacity="1" stroke="#f80d8e" stroke-opacity="1" data-original-stroke-color="#000000ff" stroke-width="12" data-original-stroke-width="15"/>
		</g>
		<g>
			<path style="stroke-linecap: round; stroke-linejoin: round; stroke-miterlimit: 10;" d="&#10;&#9;&#9;&#9;&#9;M117.401,353.719c5.955,5.955,5.955,15.609,0,21.564c-2.953,2.953-13.563,13.659-13.563,13.659s-7.828-7.828-10.83-10.83&#10;&#9;&#9;&#9;&#9;c-2.465-2.465-10.782-10.782-10.782-10.782s10.122-10.122,13.611-13.611C101.792,347.764,111.447,347.764,117.401,353.719z" fill="none" fill-opacity="1" stroke="#f80d8e" stroke-opacity="1" data-original-stroke-color="#000000ff" stroke-width="12" data-original-stroke-width="15"/>
			<path style="stroke-linecap: round; stroke-linejoin: round; stroke-miterlimit: 10;" d="&#10;&#9;&#9;&#9;&#9;M145.017,372.919c6.966,6.966,6.966,18.26,0,25.225c-3.455,3.455-15.932,16.044-15.932,16.044s-9.157-9.157-12.668-12.668&#10;&#9;&#9;&#9;&#9;c-2.884-2.884-12.613-12.613-12.613-12.613s11.906-11.906,15.988-15.988C126.757,365.953,138.051,365.953,145.017,372.919z" fill="none" fill-opacity="1" stroke="#f80d8e" stroke-opacity="1" data-original-stroke-color="#000000ff" stroke-width="12" data-original-stroke-width="15"/>
		</g>
		<g>
			
				<line style="stroke-linecap: round; stroke-linejoin: round; stroke-miterlimit: 10;" x1="159.714" y1="338.83" x2="201.762" y2="341.51" fill="none" fill-opacity="1" stroke="#f80d8e" stroke-opacity="1" data-original-stroke-color="#000000ff" stroke-width="12" data-original-stroke-width="15"/>
			
				<line style="stroke-linecap: round; stroke-linejoin: round; stroke-miterlimit: 10;" x1="129.57" y1="319.987" x2="176.428" y2="366.844" fill="none" fill-opacity="1" stroke="#f80d8e" stroke-opacity="1" data-original-stroke-color="#000000ff" stroke-width="12" data-original-stroke-width="15"/>
			<path style="stroke-linecap: round; stroke-linejoin: round; stroke-miterlimit: 10;" d="&#10;&#9;&#9;&#9;&#9;M167.082,306.83c6.726,6.726,6.281,18.075-0.689,25.045c-3.457,3.457-12.311,12.419-12.311,12.419s-8.897-8.786-12.287-12.176&#10;&#9;&#9;&#9;&#9;c-2.784-2.784-12.209-12.147-12.209-12.147s8.367-8.367,12.452-12.452C149.007,300.55,160.356,300.105,167.082,306.83z" fill="none" fill-opacity="1" stroke="#f80d8e" stroke-opacity="1" data-original-stroke-color="#000000ff" stroke-width="12" data-original-stroke-width="15"/>
		</g>
	</g>
	<path style="stroke-linecap: round; stroke-linejoin: round; stroke-miterlimit: 10;" d="&#10;&#9;&#9;M415.058,235.308l31.024-31.024c4.012-4.012,5.705-9.79,4.492-15.333L427.162,81.959c-1.39-6.353-6.353-11.316-12.706-12.706&#10;&#9;&#9;L307.463,45.84c-5.542-1.213-11.321,0.48-15.333,4.492L12.377,330.086c-6.502,6.502-6.502,17.045,0,23.547l12.613,12.613" fill="none" fill-opacity="1" stroke="#f80d8e" stroke-opacity="1" data-original-stroke-color="#000000ff" stroke-width="12" data-original-stroke-width="15"/>
	<path style="stroke-linecap: round; stroke-linejoin: round; stroke-miterlimit: 10;" d="&#10;&#9;&#9;M49.377,390.633l93.405,93.405c6.502,6.502,17.045,6.502,23.547,0l224.006-224.003" fill="none" fill-opacity="1" stroke="#f80d8e" stroke-opacity="1" data-original-stroke-color="#000000ff" stroke-width="12" data-original-stroke-width="15"/>
	<path style="stroke-linecap: round; stroke-linejoin: round; stroke-miterlimit: 10;" d="&#10;&#9;&#9;M377.756,59.742c3.119-6.144,7.247-11.907,12.384-17.044c26.16-26.16,68.573-26.16,94.733,0c26.16,26.16,26.16,68.573,0,94.733&#10;&#9;&#9;c-26.16,26.16-68.573,26.16-94.733,0c-4.649-4.649-8.472-9.812-11.469-15.306" fill="none" fill-opacity="1" stroke="#f80d8e" stroke-opacity="1" data-original-stroke-color="#000000ff" stroke-width="12" data-original-stroke-width="15"/>
</g></g></svg>