<svg version="1.1" id="svg3720" xml:space="preserve" width="300" height="300" viewBox="0 0 682.66669 682.66669" xmlns="http://www.w3.org/2000/svg" xmlns:svg="http://www.w3.org/2000/svg" xmlns:xlink="http://www.w3.org/1999/xlink" xmlns:svgjs="http://svgjs.dev/svgjs"><g width="100%" height="100%" transform="matrix(1,0,0,1,0,0)"><defs id="defs3724"><clipPath clipPathUnits="userSpaceOnUse" id="clipPath3734"><path d="M 0,512 H 512 V 0 H 0 Z" id="path3732" fill="#f80d8e" fill-opacity="1" data-original-color="#000000ff" stroke="none" stroke-opacity="1"/></clipPath></defs><g id="g3726" transform="matrix(1.3333333,0,0,-1.3333333,0,682.66667)"><g id="g3728"><g id="g3730" clip-path="url(#clipPath3734)"><g id="g3736" transform="translate(380.394,115.7178)"><path d="m 0,0 h -348.846 c -13.281,0 -24.048,10.767 -24.048,24.048 v 304.613 c 0,13.282 10.767,24.048 24.048,24.048 H 19.896 c 13.282,0 24.049,-10.766 24.049,-24.048 V 100.393" style="stroke-linecap: round; stroke-linejoin: round; stroke-miterlimit: 10; stroke-dasharray: none;" id="path3738" fill="none" fill-opacity="1" stroke="#f80d8e" stroke-opacity="1" data-original-stroke-color="#000000ff" stroke-width="15" data-original-stroke-width="15"/></g><g id="g3740" transform="translate(7.5,404.2983)"><path d="M 0,0 H 416.839" style="stroke-linecap: round; stroke-linejoin: round; stroke-miterlimit: 10; stroke-dasharray: none;" id="path3742" fill="none" fill-opacity="1" stroke="#f80d8e" stroke-opacity="1" data-original-stroke-color="#000000ff" stroke-width="15" data-original-stroke-width="15"/></g><g id="g3744" transform="translate(119.7256,436.3628)"><path d="M 0,0 H 192.387" style="stroke-linecap: round; stroke-linejoin: round; stroke-miterlimit: 10; stroke-dasharray: none;" id="path3746" fill="none" fill-opacity="1" stroke="#f80d8e" stroke-opacity="1" data-original-stroke-color="#000000ff" stroke-width="15" data-original-stroke-width="15"/></g><g id="g3748" transform="translate(344.1772,436.3628)"><path d="M 0,0 H 48.097" style="stroke-linecap: round; stroke-linejoin: round; stroke-miterlimit: 10; stroke-dasharray: none;" id="path3750" fill="none" fill-opacity="1" stroke="#f80d8e" stroke-opacity="1" data-original-stroke-color="#000000ff" stroke-width="15" data-original-stroke-width="15"/></g><g id="g3752" transform="translate(39.5645,436.3628)"><path d="M 0,0 H 0.08" style="stroke-linecap: round; stroke-linejoin: round; stroke-miterlimit: 10; stroke-dasharray: none;" id="path3754" fill="none" fill-opacity="1" stroke="#f80d8e" stroke-opacity="1" data-original-stroke-color="#000000ff" stroke-width="15" data-original-stroke-width="15"/></g><g id="g3756" transform="translate(87.5811,436.3628)"><path d="M 0,0 H 0.08" style="stroke-linecap: round; stroke-linejoin: round; stroke-miterlimit: 10; stroke-dasharray: none;" id="path3758" fill="none" fill-opacity="1" stroke="#f80d8e" stroke-opacity="1" data-original-stroke-color="#000000ff" stroke-width="15" data-original-stroke-width="15"/></g><g id="g3760" transform="translate(63.5327,436.3628)"><path d="M 0,0 H 0.08" style="stroke-linecap: round; stroke-linejoin: round; stroke-miterlimit: 10; stroke-dasharray: none;" id="path3762" fill="none" fill-opacity="1" stroke="#f80d8e" stroke-opacity="1" data-original-stroke-color="#000000ff" stroke-width="15" data-original-stroke-width="15"/></g><g id="g3764" transform="translate(456.3477,102.7246)"><path d="M 0,0 48.152,14.01 -56.98,89.632 -33.002,-37.634 Z" style="stroke-linecap: round; stroke-linejoin: round; stroke-miterlimit: 10; stroke-dasharray: none;" id="path3766" fill="none" fill-opacity="1" stroke="#f80d8e" stroke-opacity="1" data-original-stroke-color="#000000ff" stroke-width="15" data-original-stroke-width="15"/></g><g id="g3768" transform="translate(456.3477,102.7246)"><path d="M 0,0 37.701,-59.152" style="stroke-linecap: round; stroke-linejoin: round; stroke-miterlimit: 10; stroke-dasharray: none;" id="path3770" fill="none" fill-opacity="1" stroke="#f80d8e" stroke-opacity="1" data-original-stroke-color="#000000ff" stroke-width="15" data-original-stroke-width="15"/></g><g id="g3772" transform="translate(215.9194,163.8145)"><path d="M 0,0 V 192.387" style="stroke-linecap: round; stroke-linejoin: round; stroke-miterlimit: 10; stroke-dasharray: none;" id="path3774" fill="none" fill-opacity="1" stroke="#f80d8e" stroke-opacity="1" data-original-stroke-color="#000000ff" stroke-width="15" data-original-stroke-width="15"/></g><g id="g3776" transform="translate(119.7256,260.0083)"><path d="M 0,0 H 192.387" style="stroke-linecap: round; stroke-linejoin: round; stroke-miterlimit: 10; stroke-dasharray: none;" id="path3778" fill="none" fill-opacity="1" stroke="#f80d8e" stroke-opacity="1" data-original-stroke-color="#000000ff" stroke-width="15" data-original-stroke-width="15"/></g><g id="g3780" transform="translate(272.0322,260.0083)"><path d="m 0,0 c 0,-53.126 -25.123,-96.194 -56.113,-96.194 -30.99,0 -56.113,43.068 -56.113,96.194 0,53.126 25.123,96.193 56.113,96.193 C -25.123,96.193 0,53.126 0,0 Z" style="stroke-linecap: round; stroke-linejoin: round; stroke-miterlimit: 10; stroke-dasharray: none;" id="path3782" fill="none" fill-opacity="1" stroke="#f80d8e" stroke-opacity="1" data-original-stroke-color="#000000ff" stroke-width="15" data-original-stroke-width="15"/></g><g id="g3784" transform="translate(286.6357,325.106)"><path d="m 0,0 c -13.06,14.211 -30.445,24.696 -50.765,29.004 -51.971,11.019 -103.034,-22.179 -114.053,-74.15 -4.308,-20.32 -1.782,-40.464 5.908,-58.167" style="stroke-linecap: round; stroke-linejoin: round; stroke-miterlimit: 10; stroke-dasharray: none;" id="path3786" fill="none" fill-opacity="1" stroke="#f80d8e" stroke-opacity="1" data-original-stroke-color="#000000ff" stroke-width="15" data-original-stroke-width="15"/></g><g id="g3788" transform="translate(145.2036,194.9106)"><path d="m 0,0 c 13.06,-14.212 30.444,-24.696 50.764,-29.004 51.971,-11.019 103.034,22.179 114.053,74.15 4.308,20.319 1.782,40.464 -5.908,58.167" style="stroke-linecap: round; stroke-linejoin: round; stroke-miterlimit: 10; stroke-dasharray: none;" id="path3790" fill="none" fill-opacity="1" stroke="#f80d8e" stroke-opacity="1" data-original-stroke-color="#000000ff" stroke-width="15" data-original-stroke-width="15"/></g></g></g></g></g></svg>