<svg version="1.1" id="svg4944" xml:space="preserve" width="300" height="300" viewBox="0 0 682.66669 682.66669" xmlns="http://www.w3.org/2000/svg" xmlns:svg="http://www.w3.org/2000/svg" xmlns:xlink="http://www.w3.org/1999/xlink" xmlns:svgjs="http://svgjs.dev/svgjs"><g width="100%" height="100%" transform="matrix(1,0,0,1,0,0)"><defs id="defs4948"><clipPath clipPathUnits="userSpaceOnUse" id="clipPath4958"><path d="M 0,512 H 512 V 0 H 0 Z" id="path4956" fill="#f80d8e" fill-opacity="1" data-original-color="#000000ff" stroke="none" stroke-opacity="1"/></clipPath></defs><g id="g4950" transform="matrix(1.3333333,0,0,-1.3333333,0,682.66667)"><g id="g4952"><g id="g4954" clip-path="url(#clipPath4958)"><g id="g4960" transform="translate(43.5,464.5)"><path d="m 0,0 h -32 c -2.209,0 -4,1.791 -4,4 v 32 c 0,2.209 1.791,4 4,4 H 0 c 2.209,0 4,-1.791 4,-4 V 4 C 4,1.791 2.209,0 0,0 Z" style="stroke-linecap: round; stroke-linejoin: round; stroke-miterlimit: 10; stroke-dasharray: none;" id="path4962" fill="none" fill-opacity="1" stroke="#f80d8e" stroke-opacity="1" data-original-stroke-color="#000000ff" stroke-width="15" data-original-stroke-width="15"/></g><g id="g4964" transform="translate(272,464.5)"><path d="m 0,0 h -32 c -2.209,0 -4,1.791 -4,4 v 32 c 0,2.209 1.791,4 4,4 H 0 c 2.209,0 4,-1.791 4,-4 V 4 C 4,1.791 2.209,0 0,0 Z" style="stroke-linecap: round; stroke-linejoin: round; stroke-miterlimit: 10; stroke-dasharray: none;" id="path4966" fill="none" fill-opacity="1" stroke="#f80d8e" stroke-opacity="1" data-original-stroke-color="#000000ff" stroke-width="15" data-original-stroke-width="15"/></g><g id="g4968" transform="translate(500.5,464.5)"><path d="m 0,0 h -32 c -2.209,0 -4,1.791 -4,4 v 32 c 0,2.209 1.791,4 4,4 H 0 c 2.209,0 4,-1.791 4,-4 V 4 C 4,1.791 2.209,0 0,0 Z" style="stroke-linecap: round; stroke-linejoin: round; stroke-miterlimit: 10; stroke-dasharray: none;" id="path4970" fill="none" fill-opacity="1" stroke="#f80d8e" stroke-opacity="1" data-original-stroke-color="#000000ff" stroke-width="15" data-original-stroke-width="15"/></g><g id="g4972" transform="translate(43.5,7.5)"><path d="m 0,0 h -32 c -2.209,0 -4,1.791 -4,4 v 32 c 0,2.209 1.791,4 4,4 H 0 c 2.209,0 4,-1.791 4,-4 V 4 C 4,1.791 2.209,0 0,0 Z" style="stroke-linecap: round; stroke-linejoin: round; stroke-miterlimit: 10; stroke-dasharray: none;" id="path4974" fill="none" fill-opacity="1" stroke="#f80d8e" stroke-opacity="1" data-original-stroke-color="#000000ff" stroke-width="15" data-original-stroke-width="15"/></g><g id="g4976" transform="translate(43.5,7.5)"><path d="m 0,0 h -32 c -2.209,0 -4,1.791 -4,4 v 32 c 0,2.209 1.791,4 4,4 H 0 c 2.209,0 4,-1.791 4,-4 V 4 C 4,1.791 2.209,0 0,0 Z" style="stroke-linecap: round; stroke-linejoin: round; stroke-miterlimit: 10; stroke-dasharray: none;" id="path4978" fill="none" fill-opacity="1" stroke="#f80d8e" stroke-opacity="1" data-original-stroke-color="#000000ff" stroke-width="15" data-original-stroke-width="15"/></g><g id="g4980" transform="translate(43.5,236)"><path d="m 0,0 h -32 c -2.209,0 -4,1.791 -4,4 v 32 c 0,2.209 1.791,4 4,4 H 0 c 2.209,0 4,-1.791 4,-4 V 4 C 4,1.791 2.209,0 0,0 Z" style="stroke-linecap: round; stroke-linejoin: round; stroke-miterlimit: 10; stroke-dasharray: none;" id="path4982" fill="none" fill-opacity="1" stroke="#f80d8e" stroke-opacity="1" data-original-stroke-color="#000000ff" stroke-width="15" data-original-stroke-width="15"/></g><g id="g4984" transform="translate(43.5,236)"><path d="m 0,0 h -32 c -2.209,0 -4,1.791 -4,4 v 32 c 0,2.209 1.791,4 4,4 H 0 c 2.209,0 4,-1.791 4,-4 V 4 C 4,1.791 2.209,0 0,0 Z" style="stroke-linecap: round; stroke-linejoin: round; stroke-miterlimit: 10; stroke-dasharray: none;" id="path4986" fill="none" fill-opacity="1" stroke="#f80d8e" stroke-opacity="1" data-original-stroke-color="#000000ff" stroke-width="15" data-original-stroke-width="15"/></g><g id="g4988" transform="translate(272,7.5)"><path d="m 0,0 h -32 c -2.209,0 -4,1.791 -4,4 v 32 c 0,2.209 1.791,4 4,4 H 0 c 2.209,0 4,-1.791 4,-4 V 4 C 4,1.791 2.209,0 0,0 Z" style="stroke-linecap: round; stroke-linejoin: round; stroke-miterlimit: 10; stroke-dasharray: none;" id="path4990" fill="none" fill-opacity="1" stroke="#f80d8e" stroke-opacity="1" data-original-stroke-color="#000000ff" stroke-width="15" data-original-stroke-width="15"/></g><g id="g4992" transform="translate(500.5,7.5)"><path d="m 0,0 h -32 c -2.209,0 -4,1.791 -4,4 v 32 c 0,2.209 1.791,4 4,4 H 0 c 2.209,0 4,-1.791 4,-4 V 4 C 4,1.791 2.209,0 0,0 Z" style="stroke-linecap: round; stroke-linejoin: round; stroke-miterlimit: 10; stroke-dasharray: none;" id="path4994" fill="none" fill-opacity="1" stroke="#f80d8e" stroke-opacity="1" data-original-stroke-color="#000000ff" stroke-width="15" data-original-stroke-width="15"/></g><g id="g4996" transform="translate(500.5,236)"><path d="m 0,0 h -32 c -2.209,0 -4,1.791 -4,4 v 32 c 0,2.209 1.791,4 4,4 H 0 c 2.209,0 4,-1.791 4,-4 V 4 C 4,1.791 2.209,0 0,0 Z" style="stroke-linecap: round; stroke-linejoin: round; stroke-miterlimit: 10; stroke-dasharray: none;" id="path4998" fill="none" fill-opacity="1" stroke="#f80d8e" stroke-opacity="1" data-original-stroke-color="#000000ff" stroke-width="15" data-original-stroke-width="15"/></g><g id="g5000" transform="translate(236,27.5)"><path d="M 0,0 H -188.5" style="stroke-linecap: round; stroke-linejoin: round; stroke-miterlimit: 10; stroke-dasharray: none;" id="path5002" fill="none" fill-opacity="1" stroke="#f80d8e" stroke-opacity="1" data-original-stroke-color="#000000ff" stroke-width="15" data-original-stroke-width="15"/></g><g id="g5004" transform="translate(464.5,27.5)"><path d="M 0,0 H -188.5" style="stroke-linecap: round; stroke-linejoin: round; stroke-miterlimit: 10; stroke-dasharray: none;" id="path5006" fill="none" fill-opacity="1" stroke="#f80d8e" stroke-opacity="1" data-original-stroke-color="#000000ff" stroke-width="15" data-original-stroke-width="15"/></g><g id="g5008" transform="translate(484.5,47.5)"><path d="M 0,0 V 188.5" style="stroke-linecap: round; stroke-linejoin: round; stroke-miterlimit: 10; stroke-dasharray: none;" id="path5010" fill="none" fill-opacity="1" stroke="#f80d8e" stroke-opacity="1" data-original-stroke-color="#000000ff" stroke-width="15" data-original-stroke-width="15"/></g><g id="g5012" transform="translate(484.5,276)"><path d="M 0,0 V 188.5" style="stroke-linecap: round; stroke-linejoin: round; stroke-miterlimit: 10; stroke-dasharray: none;" id="path5014" fill="none" fill-opacity="1" stroke="#f80d8e" stroke-opacity="1" data-original-stroke-color="#000000ff" stroke-width="15" data-original-stroke-width="15"/></g><g id="g5016" transform="translate(464.5,484.5)"><path d="M 0,0 H -188.5" style="stroke-linecap: round; stroke-linejoin: round; stroke-miterlimit: 10; stroke-dasharray: none;" id="path5018" fill="none" fill-opacity="1" stroke="#f80d8e" stroke-opacity="1" data-original-stroke-color="#000000ff" stroke-width="15" data-original-stroke-width="15"/></g><g id="g5020" transform="translate(236,484.5)"><path d="M 0,0 H -188.5" style="stroke-linecap: round; stroke-linejoin: round; stroke-miterlimit: 10; stroke-dasharray: none;" id="path5022" fill="none" fill-opacity="1" stroke="#f80d8e" stroke-opacity="1" data-original-stroke-color="#000000ff" stroke-width="15" data-original-stroke-width="15"/></g><g id="g5024" transform="translate(27.5,276)"><path d="M 0,0 V 188.5" style="stroke-linecap: round; stroke-linejoin: round; stroke-miterlimit: 10; stroke-dasharray: none;" id="path5026" fill="none" fill-opacity="1" stroke="#f80d8e" stroke-opacity="1" data-original-stroke-color="#000000ff" stroke-width="15" data-original-stroke-width="15"/></g><g id="g5028" transform="translate(27.5,47.5)"><path d="M 0,0 V 188.5" style="stroke-linecap: round; stroke-linejoin: round; stroke-miterlimit: 10; stroke-dasharray: none;" id="path5030" fill="none" fill-opacity="1" stroke="#f80d8e" stroke-opacity="1" data-original-stroke-color="#000000ff" stroke-width="15" data-original-stroke-width="15"/></g><g id="g5032" transform="translate(414.0996,202.75)"><path d="m 0,0 20.641,35.75 c 6.25,10.83 6.25,24.17 0,35 l -63.031,109.16 -11.19,19.38 c -6.25,10.83 -17.8,17.5 -30.31,17.5 h -148.42 c -12.51,0 -24.06,-6.67 -30.31,-17.5 l -11.19,-19.38 -63.03,-109.16 c -6.25,-10.83 -6.25,-24.17 0,-35 l 64.611,-111.9 9.609,-16.64 c 6.25,-10.83 17.8,-17.5 30.31,-17.5 h 148.42 c 12.51,0 24.06,6.67 30.31,17.5 l 9.61,16.64 25.851,44.78" style="stroke-linecap: round; stroke-linejoin: round; stroke-miterlimit: 10; stroke-dasharray: none;" id="path5034" fill="none" fill-opacity="1" stroke="#f80d8e" stroke-opacity="1" data-original-stroke-color="#000000ff" stroke-width="15" data-original-stroke-width="15"/></g><g id="g5036" transform="translate(196.6499,382.6602)"><path d="M 0,0 H -56.36" style="stroke-linecap: round; stroke-linejoin: round; stroke-miterlimit: 10; stroke-dasharray: none;" id="path5038" fill="none" fill-opacity="1" stroke="#f80d8e" stroke-opacity="1" data-original-stroke-color="#000000ff" stroke-width="15" data-original-stroke-width="15"/></g><g id="g5040" transform="translate(371.71,382.6602)"><path d="M 0,0 H -140.06" style="stroke-linecap: round; stroke-linejoin: round; stroke-miterlimit: 10; stroke-dasharray: none;" id="path5042" fill="none" fill-opacity="1" stroke="#f80d8e" stroke-opacity="1" data-original-stroke-color="#000000ff" stroke-width="15" data-original-stroke-width="15"/></g><g id="g5044" transform="translate(370.1299,126.5996)"><path d="M 0,0 H -228.26" style="stroke-linecap: round; stroke-linejoin: round; stroke-miterlimit: 10; stroke-dasharray: none;" id="path5046" fill="none" fill-opacity="1" stroke="#f80d8e" stroke-opacity="1" data-original-stroke-color="#000000ff" stroke-width="15" data-original-stroke-width="15"/></g><g id="g5048" transform="translate(127.3198,283.7852)"><path d="m 0,0 v -54.554 c 0,-0.547 0.437,-0.993 0.983,-1 3.977,-0.05 18.476,0.031 18.476,0.031" style="stroke-linecap: round; stroke-linejoin: round; stroke-miterlimit: 10; stroke-dasharray: none;" id="path5050" fill="none" fill-opacity="1" stroke="#f80d8e" stroke-opacity="1" data-original-stroke-color="#000000ff" stroke-width="15" data-original-stroke-width="15"/></g><g id="g5052" transform="translate(295.6689,279.04)"><path d="M 0,0 C -5.019,3.391 -11.205,5.185 -17.829,4.653 -31.393,3.564 -42.302,-7.47 -43.25,-21.044 c -1.135,-16.248 11.71,-29.781 27.716,-29.781 15.04,0 23.639,11.951 23.974,26.875 0.012,0.499 -0.398,0.91 -0.897,0.91 H -8.173" style="stroke-linecap: round; stroke-linejoin: round; stroke-miterlimit: 10; stroke-dasharray: none;" id="path5054" fill="none" fill-opacity="1" stroke="#f80d8e" stroke-opacity="1" data-original-stroke-color="#000000ff" stroke-width="15" data-original-stroke-width="15"/></g><g id="g5056" transform="translate(384.6807,256)"><path d="m 0,0 c 0,-15.346 -12.44,-27.785 -27.785,-27.785 -15.346,0 -27.785,12.439 -27.785,27.785 0,15.346 12.439,27.785 27.785,27.785 C -12.44,27.785 0,15.346 0,0 Z" style="stroke-linecap: round; stroke-linejoin: round; stroke-miterlimit: 10; stroke-dasharray: none;" id="path5058" fill="none" fill-opacity="1" stroke="#f80d8e" stroke-opacity="1" data-original-stroke-color="#000000ff" stroke-width="15" data-original-stroke-width="15"/></g><g id="g5060" transform="translate(227.3491,256)"><path d="m 0,0 c 0,-15.346 -12.44,-27.785 -27.785,-27.785 -15.346,0 -27.785,12.439 -27.785,27.785 0,15.346 12.439,27.785 27.785,27.785 C -12.44,27.785 0,15.346 0,0 Z" style="stroke-linecap: round; stroke-linejoin: round; stroke-miterlimit: 10; stroke-dasharray: none;" id="path5062" fill="none" fill-opacity="1" stroke="#f80d8e" stroke-opacity="1" data-original-stroke-color="#000000ff" stroke-width="15" data-original-stroke-width="15"/></g><g id="g5064" transform="translate(304.1104,320.2246)"><path d="M 0,0 H -84.703 C -91.726,0 -97.788,5.396 -98.097,12.412 -98.426,19.859 -92.485,26 -85.11,26 H -0.408 C 6.615,26 12.678,20.604 12.987,13.588 13.315,6.141 7.375,0 0,0 Z" style="stroke-linecap: round; stroke-linejoin: round; stroke-miterlimit: 10; stroke-dasharray: none;" id="path5066" fill="none" fill-opacity="1" stroke="#f80d8e" stroke-opacity="1" data-original-stroke-color="#000000ff" stroke-width="15" data-original-stroke-width="15"/></g><g id="g5068" transform="translate(304.1104,164.4102)"><path d="M 0,0 H -84.703 C -91.726,0 -97.788,5.396 -98.097,12.412 -98.426,19.859 -92.485,26 -85.11,26 H -0.408 C 6.615,26 12.678,20.604 12.987,13.588 13.315,6.141 7.375,0 0,0 Z" style="stroke-linecap: round; stroke-linejoin: round; stroke-miterlimit: 10; stroke-dasharray: none;" id="path5070" fill="none" fill-opacity="1" stroke="#f80d8e" stroke-opacity="1" data-original-stroke-color="#000000ff" stroke-width="15" data-original-stroke-width="15"/></g></g></g></g></g></svg>