<svg version="1.1" id="Capa_1" xmlns="http://www.w3.org/2000/svg" xmlns:xlink="http://www.w3.org/1999/xlink" x="0px" y="0px" viewBox="0 0 512.007 512.007" style="enable-background:new 0 0 512.007 512.007;" xml:space="preserve" width="300" height="300" xmlns:svgjs="http://svgjs.dev/svgjs"><g width="100%" height="100%" transform="matrix(1,0,0,1,0,0)"><g>
	<g>
		<g>
			<path d="M149.656,308.639c-0.129-0.525-0.282-1.039-0.46-1.543l-50.123-168.03c-2.068-6.94-8.457-11.697-15.699-11.697&#10;&#9;&#9;&#9;&#9;c-7.251,0-13.631,4.757-15.708,11.697L18.13,305.107c-0.9,1.758-1.504,3.694-1.715,5.75L0.69,363.566&#10;&#9;&#9;&#9;&#9;c-2.591,8.67,2.343,17.794,11.013,20.376c8.679,2.6,17.802-2.325,20.385-11.013l13.127-43.991h76.298l13.121,43.991&#10;&#9;&#9;&#9;&#9;c2.121,7.109,8.635,11.706,15.69,11.706c1.553,0,3.133-0.222,4.704-0.683c8.67-2.591,13.605-11.714,11.013-20.385&#10;&#9;&#9;&#9;&#9;L149.656,308.639z M54.993,296.173l28.381-95.109l28.367,95.109H54.993z" fill="#f80d8e" fill-opacity="1" data-original-color="#000000ff" stroke="none" stroke-opacity="1"/>
			<path d="M495.615,218.858c9.052,0,16.391-7.33,16.391-16.382v-9.895c0-35.96-30.413-65.21-67.784-65.21h-4.606&#10;&#9;&#9;&#9;&#9;c-37.362,0-67.766,29.251-67.766,65.21v126.835c0,35.96,30.404,65.21,67.766,65.21h4.606c37.371,0,67.775-29.251,67.784-65.201&#10;&#9;&#9;&#9;&#9;v-12.016c0-9.052-7.339-16.382-16.391-16.382s-16.382,7.33-16.382,16.382v12.016c0,17.882-15.708,32.445-35.01,32.445h-4.606&#10;&#9;&#9;&#9;&#9;c-19.293,0-34.992-14.554-34.992-32.445V192.58c0-17.882,15.69-32.445,34.992-32.445h4.606c19.293,0,35.01,14.554,35.01,32.445&#10;&#9;&#9;&#9;&#9;v9.895C479.233,211.527,486.563,218.858,495.615,218.858z" fill="#f80d8e" fill-opacity="1" data-original-color="#000000ff" stroke="none" stroke-opacity="1"/>
			<path d="M304.937,240.006c10.126-11.501,16.276-26.588,16.276-43.077v-4.349c0-35.96-29.268-65.21-65.237-65.21h-45.526&#10;&#9;&#9;&#9;&#9;c-9.043,0-16.382,7.33-16.382,16.382v224.491c0,9.052,7.33,16.382,16.382,16.382h56.593c40.796,0,73.978-33.626,73.978-74.955&#10;&#9;&#9;&#9;&#9;v-5.289C341.021,277.066,326.537,253.122,304.937,240.006z M226.831,160.135h29.144c17.9,0,32.463,14.554,32.463,32.445v4.349&#10;&#9;&#9;&#9;&#9;c0,17.9-14.554,32.481-32.463,32.481h-29.144V160.135z M308.256,309.662c0,23.269-18.486,42.207-41.214,42.207h-40.211v-89.704&#10;&#9;&#9;&#9;&#9;h40.211c22.728,0,41.214,18.938,41.214,42.207V309.662z" fill="#f80d8e" fill-opacity="1" data-original-color="#000000ff" stroke="none" stroke-opacity="1"/>
		</g>
	</g>
</g><g>
</g><g>
</g><g>
</g><g>
</g><g>
</g><g>
</g><g>
</g><g>
</g><g>
</g><g>
</g><g>
</g><g>
</g><g>
</g><g>
</g><g>
</g></g></svg>