<svg clip-rule="evenodd" fill-rule="evenodd" height="300" image-rendering="optimizeQuality" shape-rendering="geometricPrecision" text-rendering="geometricPrecision" viewBox="0 0 1707 1707" width="300" xmlns="http://www.w3.org/2000/svg" version="1.1" xmlns:xlink="http://www.w3.org/1999/xlink" xmlns:svgjs="http://svgjs.dev/svgjs"><g width="100%" height="100%" transform="matrix(1,0,0,1,0,0)"><g id="Layer_x0020_1"><path d="m543 231c-91 0-91-137 0-137 37 0 68 31 68 69 0 37-31 68-68 68zm765 1457h-910c-163 0-280-161-233-314h-78c-48 0-87-39-87-87v-1124c0-80 65-145 144-145h692c21 0 30 31 43 56h711c64 0 117 52 117 116v1097c0 48-39 87-87 87h-79c47 153-69 314-233 314zm-1123-361c38-69 110-118 192-125 12-39 33-73 61-100v-224c-53 0-103 4-128-56-14-34-6-71 20-98l135-135c35-35 92-35 127 0l135 135c57 57 16 154-64 154h-44v153c40 1 78 12 112 32 83-109 229-151 356-103v-257c-53 0-103 4-127-55-15-35-7-72 19-98l135-135c35-36 92-36 127 0l135 135c57 56 16 153-63 153h-44v439c7 19 12 39 15 60 99-11 193 43 238 125h98c22 0 40-18 40-40v-980h-1613v980c0 22 18 40 40 40zm299-262c27-16 57-27 89-32v-178c0-54 106 8 130-50 7-17 4-35-9-48l-135-135c-17-17-44-17-61 0l-135 135c-27 27-8 74 30 74h67c13 0 24 11 24 24zm649-83c35 20 65 47 89 78v-380c0-53 107 8 131-50 7-17 3-35-10-47l-135-135c-16-17-45-17-61 0l-135 135c-27 26-7 74 31 74h67c13 0 23 10 23 23zm-523 95c-92 0-171 63-192 152-2 11-11 18-22 18-107 2-195 90-195 197 0 109 89 198 197 198h910c109 0 197-89 197-198 0-125-115-216-236-193-14 3-27-7-28-21-11-136-126-243-263-243-89 0-172 45-221 120-7 11-22 14-33 7-33-24-73-37-114-37zm-32 498c-89 0-125-120-74-120 13 0 24 10 24 23 0 66 101 66 101 0 0-28-23-50-51-50-53 0-97-44-97-97 0-54 44-97 97-97 89 0 125 120 74 120-13 0-23-10-23-23 0-66-101-66-101 0 0 27 22 50 50 50 54 0 97 44 97 97 0 54-43 97-97 97zm325 0h-152c-13 0-24-10-24-23v-295c0-13 11-23 24-23h152c31 0 31 46 0 46h-129v101h129c31 0 31 47 0 47h-129v101h129c31 0 31 46 0 46zm199 0c-68 0-123-55-123-123v-95c0-68 55-123 123-123s124 55 124 123v95c0 68-56 123-124 123zm0-295c-42 0-76 35-76 77v95c0 42 34 77 76 77 43 0 77-35 77-77v-95c0-42-34-77-77-77zm-1055-1020h878l-103-195h-678c-54 0-97 44-97 98zm859-136 72 136h682v-70c0-38-31-70-70-70h-686zm-704 107c-90 0-90-137 0-137s90 137 0 137zm0-90c-28 0-28 43 0 43s28-43 0-43zm170 90c-90 0-90-137 0-137 91 0 91 137 0 137zm0-90c-28 0-28 43 0 43 29 0 29-43 0-43zm171 0c-29 0-29 43 0 43 28 0 28-43 0-43z" fill="#f80d8e" fill-opacity="1" data-original-color="#000000ff" stroke="none" stroke-opacity="1"/></g></g></svg>