<svg width="24" height="24" viewBox="0 0 24 24" fill="none" xmlns="http://www.w3.org/2000/svg">
<path d="M6.90999 5.5L9.20999 7.79L7.78999 9.21L5.49999 6.91L3.20999 9.21L1.78999 7.79L4.08999 5.5L1.78999 3.21L3.20999 1.79L5.49999 4.09L7.78999 1.79L9.20999 3.21M22.21 16.21L20.79 14.79L18.5 17.09L16.21 14.79L14.79 16.21L17.09 18.5L14.79 20.79L16.21 22.21L18.5 19.91L20.79 22.21L22.21 20.79L19.91 18.5M20.4 6.83L17.18 11L15.6 9.73L16.77 8.23C15.2777 8.53314 13.8855 9.20675 12.7217 10.1888C11.5579 11.1709 10.6598 12.4299 10.11 13.85C10.9804 14.4777 11.5978 15.3957 11.8509 16.4385C12.104 17.4814 11.9762 18.5803 11.4904 19.5371C11.0046 20.494 10.1928 21.2457 9.20155 21.6568C8.21029 22.0678 7.10478 22.1111 6.08442 21.7788C5.06407 21.4465 4.19605 20.7605 3.63695 19.8445C3.07784 18.9286 2.86446 17.843 3.03529 16.7836C3.20612 15.7242 3.74992 14.7607 4.56859 14.0669C5.38726 13.3731 6.42691 12.9947 7.49999 13C7.76199 13.0011 8.02324 13.0279 8.27999 13.08C8.97281 11.3606 10.079 9.8387 11.5007 8.64907C12.9223 7.45944 14.6154 6.63885 16.43 6.26L15 5.18L16.27 3.6M9.99999 17.5C9.99999 17.0055 9.85337 16.5222 9.57867 16.1111C9.30396 15.7 8.91352 15.3795 8.4567 15.1903C7.99989 15.0011 7.49722 14.9516 7.01227 15.048C6.52732 15.1445 6.08186 15.3826 5.73223 15.7322C5.3826 16.0819 5.14449 16.5273 5.04803 17.0123C4.95157 17.4972 5.00108 17.9999 5.19029 18.4567C5.37951 18.9135 5.69994 19.304 6.11107 19.5787C6.52219 19.8534 7.00554 20 7.49999 20C8.16303 20 8.79892 19.7366 9.26776 19.2678C9.7366 18.7989 9.99999 18.163 9.99999 17.5Z" fill="#F80D8E"/>
</svg>
