<svg width="491" height="261" fill="none" xmlns="http://www.w3.org/2000/svg"><g clip-path="url(#a)" fill="#EA307E"><path d="M283.761 224.32H98.607c-51.987 0-94.29-42.297-94.29-94.29 0-51.993 42.303-94.29 94.29-94.29H156.6a36.625 36.625 0 0 1-.069-2.1c0-.704.029-1.402.069-2.094h-57.98a98.49 98.49 0 0 0 0 196.973h185.154a31.878 31.878 0 0 1-.012-4.199zM222.995 35.74h168.652c51.987 0 94.29 42.297 94.29 94.29 0 51.993-42.303 94.29-94.29 94.29h-40.129c.041.698.07 1.396.07 2.099 0 .704-.029 1.402-.07 2.1h40.129a98.49 98.49 0 0 0 0-196.973H222.995c.046.692.075 1.39.075 2.094s-.029 1.402-.075 2.1z"/><path d="M156.599 35.74a33.265 33.265 0 0 0 66.396 0 31.87 31.87 0 0 0 .075-2.1c0-.704-.029-1.402-.075-2.094a33.265 33.265 0 0 0-66.396 0c-.04.692-.069 1.39-.069 2.094s.029 1.402.069 2.1zM317.637 260.37a33.942 33.942 0 0 0 33.881-31.851c.041-.698.07-1.396.07-2.1 0-.703-.029-1.401-.07-2.099a33.942 33.942 0 0 0-57.119-22.62 33.946 33.946 0 0 0-10.638 22.62 31.872 31.872 0 0 0-.075 2.099c0 .704.029 1.402.075 2.1a33.945 33.945 0 0 0 33.876 31.851z"/></g><defs><clipPath id="a"><path fill="#fff" transform="rotate(90 244.88 245.25)" d="M0 0h260v489.995H0z"/></clipPath></defs></svg>