<svg xmlns="http://www.w3.org/2000/svg" viewBox="0 0 1282.1 532.09"><defs><style>.cls-1{fill:#ea307e}</style></defs><g id="Camada_2" data-name="Camada 2"><g id="Camada_1-2" data-name="Camada 1"><path class="cls-1" d="m356.42 16.19 184.6 184.6L724.71 17.1l181.87 181.87 184.6-184.6 183.73 183.73 7.19-7.18L1091.18 0l-184.6 184.6L724.71 2.73 541.02 186.42 356.42 1.82 169.09 189.15 7.19 27.24 0 34.42l169.09 169.1L356.42 16.19z"/><path class="cls-1" d="M906.58 348.89 724.71 167.02 541.02 350.71l-184.6-184.6-187.33 187.33L7.19 191.53 0 198.71l169.09 169.1 187.33-187.33 184.6 184.6 183.69-183.69 181.87 181.87 184.6-184.6 183.73 183.73 7.19-7.18-190.92-190.92-184.6 184.6z"/><path class="cls-1" d="M906.58 513.18 724.71 331.31 541.02 515l-184.6-184.6-187.33 187.32L7.19 355.81 0 363l169.09 169.1 187.33-187.33 184.6 184.6 183.69-183.69 181.87 181.87 184.6-184.6 183.73 183.73 7.19-7.18-190.92-190.92-184.6 184.6z"/></g></g></svg>