<svg width="24" height="24" viewBox="0 0 24 24" fill="none" xmlns="http://www.w3.org/2000/svg">
<path d="M7.365 18.1665H8.839M11.0195 17.6595H9.8035M6.3045 18.7825C6.24115 18.8971 6.14833 18.9927 6.03564 19.0595C5.92294 19.1262 5.79446 19.1616 5.6635 19.162C5.2565 19.162 4.9265 18.8255 4.9265 18.4105V17.9225C4.9265 17.5075 5.2565 17.1715 5.6635 17.1715C6.0705 17.1715 6.4005 17.5075 6.4005 17.9225V18.1665H4.9265M18.0245 18.093L19.073 19.1575M17.6 18.5235L18.935 17.17M17.6 16.1575V19.162M15.9705 9.7015C15.9289 10.2118 15.6968 10.6877 15.3203 11.0346C14.9439 11.3816 14.4507 11.5742 13.9387 11.5742C13.4268 11.5742 12.9336 11.3816 12.5572 11.0346C12.1807 10.6877 11.9486 10.2118 11.907 9.7015M8.03 9.7C8.07253 9.19035 8.30508 8.7153 8.68152 8.3691C9.05795 8.02291 9.55076 7.83085 10.0622 7.83104C10.5736 7.83123 11.0663 8.02365 11.4425 8.37012C11.8186 8.7166 12.0508 9.19182 12.093 9.7015M16.814 9.7015C16.8137 10.9782 16.3065 12.2025 15.4037 13.1052C14.501 14.008 13.2767 14.5152 12 14.5155C10.7233 14.5152 9.49902 14.008 8.59628 13.1052C7.69354 12.2025 7.18626 10.9782 7.186 9.7015H16.814ZM16.814 9.7015C7.159 7.0425 9.292 4.8655 11.951 4.838C14.61 4.8105 16.787 6.9445 16.814 9.603V9.7015ZM11.02 17.6595C11.4275 17.6595 11.7575 17.996 11.7575 18.4105C11.7575 18.8255 11.4275 19.1615 11.0205 19.1615H9.804V16.157H11.02C11.4275 16.157 11.7575 16.4935 11.7575 16.9085C11.7575 17.3235 11.427 17.6595 11.02 17.6595ZM15.898 17.1715C16.306 17.1715 16.635 17.5065 16.635 17.9225V18.4105C16.635 18.827 16.3065 19.162 15.898 19.162C15.4895 19.162 15.1605 18.827 15.1605 18.4105V17.9225C15.1605 17.5065 15.49 17.1715 15.898 17.1715ZM13.4595 17.1715C13.868 17.1715 14.1965 17.5065 14.1965 17.9225V18.4105C14.1965 18.827 13.868 19.162 13.4595 19.162C13.051 19.162 12.7225 18.827 12.7225 18.4105V17.9225C12.7225 17.5065 13.051 17.1715 13.4595 17.1715Z" stroke="white" stroke-width="0.5" stroke-linecap="round" stroke-linejoin="round"/>
<path d="M19.25 2.75H4.75C3.64543 2.75 2.75 3.64543 2.75 4.75V19.25C2.75 20.3546 3.64543 21.25 4.75 21.25H19.25C20.3546 21.25 21.25 20.3546 21.25 19.25V4.75C21.25 3.64543 20.3546 2.75 19.25 2.75Z" stroke="white" stroke-width="0.5" stroke-linecap="round" stroke-linejoin="round"/>
</svg>
